G75*
%MOIN*%
%OFA0B0*%
%FSLAX25Y25*%
%IPPOS*%
%LPD*%
%AMOC8*
5,1,8,0,0,1.08239X$1,22.5*
%
%ADD10C,0.05000*%
%ADD11C,0.00000*%
%ADD12C,0.11424*%
%ADD13R,0.02600X0.05400*%
%ADD14R,0.05400X0.02600*%
%ADD15R,0.06100X0.04800*%
%ADD16R,0.07487X0.05124*%
%ADD17R,0.06109X0.01975*%
%ADD18R,0.06693X0.07874*%
%ADD19R,0.06693X0.10630*%
%ADD20C,0.06000*%
%ADD21C,0.13300*%
%ADD22C,0.07487*%
%ADD23R,0.07487X0.07487*%
%ADD24C,0.00500*%
%ADD25R,0.05912X0.06699*%
%ADD26R,0.02369X0.06699*%
%ADD27R,0.02600X0.02800*%
%ADD28R,0.04731X0.21660*%
%ADD29R,0.04731X0.03156*%
%ADD30R,0.02800X0.02600*%
%ADD31R,0.05550X0.05550*%
%ADD32C,0.05550*%
%ADD33R,0.02762X0.01345*%
%ADD34R,0.06896X0.09849*%
%ADD35C,0.08668*%
D10*
X0012331Y0032803D02*
X0012331Y0229654D01*
X0209181Y0229654D01*
X0209181Y0032803D01*
D11*
X0171779Y0082016D02*
X0171781Y0082164D01*
X0171787Y0082312D01*
X0171797Y0082460D01*
X0171811Y0082607D01*
X0171829Y0082754D01*
X0171850Y0082900D01*
X0171876Y0083046D01*
X0171906Y0083191D01*
X0171939Y0083335D01*
X0171977Y0083478D01*
X0172018Y0083620D01*
X0172063Y0083761D01*
X0172111Y0083901D01*
X0172164Y0084040D01*
X0172220Y0084177D01*
X0172280Y0084312D01*
X0172343Y0084446D01*
X0172410Y0084578D01*
X0172481Y0084708D01*
X0172555Y0084836D01*
X0172632Y0084962D01*
X0172713Y0085086D01*
X0172797Y0085208D01*
X0172884Y0085327D01*
X0172975Y0085444D01*
X0173069Y0085559D01*
X0173165Y0085671D01*
X0173265Y0085781D01*
X0173367Y0085887D01*
X0173473Y0085991D01*
X0173581Y0086092D01*
X0173692Y0086190D01*
X0173805Y0086286D01*
X0173921Y0086378D01*
X0174039Y0086467D01*
X0174160Y0086552D01*
X0174283Y0086635D01*
X0174408Y0086714D01*
X0174535Y0086790D01*
X0174664Y0086862D01*
X0174795Y0086931D01*
X0174928Y0086996D01*
X0175063Y0087057D01*
X0175199Y0087115D01*
X0175336Y0087170D01*
X0175475Y0087220D01*
X0175616Y0087267D01*
X0175757Y0087310D01*
X0175900Y0087350D01*
X0176044Y0087385D01*
X0176188Y0087417D01*
X0176334Y0087444D01*
X0176480Y0087468D01*
X0176627Y0087488D01*
X0176774Y0087504D01*
X0176921Y0087516D01*
X0177069Y0087524D01*
X0177217Y0087528D01*
X0177365Y0087528D01*
X0177513Y0087524D01*
X0177661Y0087516D01*
X0177808Y0087504D01*
X0177955Y0087488D01*
X0178102Y0087468D01*
X0178248Y0087444D01*
X0178394Y0087417D01*
X0178538Y0087385D01*
X0178682Y0087350D01*
X0178825Y0087310D01*
X0178966Y0087267D01*
X0179107Y0087220D01*
X0179246Y0087170D01*
X0179383Y0087115D01*
X0179519Y0087057D01*
X0179654Y0086996D01*
X0179787Y0086931D01*
X0179918Y0086862D01*
X0180047Y0086790D01*
X0180174Y0086714D01*
X0180299Y0086635D01*
X0180422Y0086552D01*
X0180543Y0086467D01*
X0180661Y0086378D01*
X0180777Y0086286D01*
X0180890Y0086190D01*
X0181001Y0086092D01*
X0181109Y0085991D01*
X0181215Y0085887D01*
X0181317Y0085781D01*
X0181417Y0085671D01*
X0181513Y0085559D01*
X0181607Y0085444D01*
X0181698Y0085327D01*
X0181785Y0085208D01*
X0181869Y0085086D01*
X0181950Y0084962D01*
X0182027Y0084836D01*
X0182101Y0084708D01*
X0182172Y0084578D01*
X0182239Y0084446D01*
X0182302Y0084312D01*
X0182362Y0084177D01*
X0182418Y0084040D01*
X0182471Y0083901D01*
X0182519Y0083761D01*
X0182564Y0083620D01*
X0182605Y0083478D01*
X0182643Y0083335D01*
X0182676Y0083191D01*
X0182706Y0083046D01*
X0182732Y0082900D01*
X0182753Y0082754D01*
X0182771Y0082607D01*
X0182785Y0082460D01*
X0182795Y0082312D01*
X0182801Y0082164D01*
X0182803Y0082016D01*
X0182801Y0081868D01*
X0182795Y0081720D01*
X0182785Y0081572D01*
X0182771Y0081425D01*
X0182753Y0081278D01*
X0182732Y0081132D01*
X0182706Y0080986D01*
X0182676Y0080841D01*
X0182643Y0080697D01*
X0182605Y0080554D01*
X0182564Y0080412D01*
X0182519Y0080271D01*
X0182471Y0080131D01*
X0182418Y0079992D01*
X0182362Y0079855D01*
X0182302Y0079720D01*
X0182239Y0079586D01*
X0182172Y0079454D01*
X0182101Y0079324D01*
X0182027Y0079196D01*
X0181950Y0079070D01*
X0181869Y0078946D01*
X0181785Y0078824D01*
X0181698Y0078705D01*
X0181607Y0078588D01*
X0181513Y0078473D01*
X0181417Y0078361D01*
X0181317Y0078251D01*
X0181215Y0078145D01*
X0181109Y0078041D01*
X0181001Y0077940D01*
X0180890Y0077842D01*
X0180777Y0077746D01*
X0180661Y0077654D01*
X0180543Y0077565D01*
X0180422Y0077480D01*
X0180299Y0077397D01*
X0180174Y0077318D01*
X0180047Y0077242D01*
X0179918Y0077170D01*
X0179787Y0077101D01*
X0179654Y0077036D01*
X0179519Y0076975D01*
X0179383Y0076917D01*
X0179246Y0076862D01*
X0179107Y0076812D01*
X0178966Y0076765D01*
X0178825Y0076722D01*
X0178682Y0076682D01*
X0178538Y0076647D01*
X0178394Y0076615D01*
X0178248Y0076588D01*
X0178102Y0076564D01*
X0177955Y0076544D01*
X0177808Y0076528D01*
X0177661Y0076516D01*
X0177513Y0076508D01*
X0177365Y0076504D01*
X0177217Y0076504D01*
X0177069Y0076508D01*
X0176921Y0076516D01*
X0176774Y0076528D01*
X0176627Y0076544D01*
X0176480Y0076564D01*
X0176334Y0076588D01*
X0176188Y0076615D01*
X0176044Y0076647D01*
X0175900Y0076682D01*
X0175757Y0076722D01*
X0175616Y0076765D01*
X0175475Y0076812D01*
X0175336Y0076862D01*
X0175199Y0076917D01*
X0175063Y0076975D01*
X0174928Y0077036D01*
X0174795Y0077101D01*
X0174664Y0077170D01*
X0174535Y0077242D01*
X0174408Y0077318D01*
X0174283Y0077397D01*
X0174160Y0077480D01*
X0174039Y0077565D01*
X0173921Y0077654D01*
X0173805Y0077746D01*
X0173692Y0077842D01*
X0173581Y0077940D01*
X0173473Y0078041D01*
X0173367Y0078145D01*
X0173265Y0078251D01*
X0173165Y0078361D01*
X0173069Y0078473D01*
X0172975Y0078588D01*
X0172884Y0078705D01*
X0172797Y0078824D01*
X0172713Y0078946D01*
X0172632Y0079070D01*
X0172555Y0079196D01*
X0172481Y0079324D01*
X0172410Y0079454D01*
X0172343Y0079586D01*
X0172280Y0079720D01*
X0172220Y0079855D01*
X0172164Y0079992D01*
X0172111Y0080131D01*
X0172063Y0080271D01*
X0172018Y0080412D01*
X0171977Y0080554D01*
X0171939Y0080697D01*
X0171906Y0080841D01*
X0171876Y0080986D01*
X0171850Y0081132D01*
X0171829Y0081278D01*
X0171811Y0081425D01*
X0171797Y0081572D01*
X0171787Y0081720D01*
X0171781Y0081868D01*
X0171779Y0082016D01*
X0063118Y0098551D02*
X0063120Y0098699D01*
X0063126Y0098847D01*
X0063136Y0098995D01*
X0063150Y0099142D01*
X0063168Y0099289D01*
X0063189Y0099435D01*
X0063215Y0099581D01*
X0063245Y0099726D01*
X0063278Y0099870D01*
X0063316Y0100013D01*
X0063357Y0100155D01*
X0063402Y0100296D01*
X0063450Y0100436D01*
X0063503Y0100575D01*
X0063559Y0100712D01*
X0063619Y0100847D01*
X0063682Y0100981D01*
X0063749Y0101113D01*
X0063820Y0101243D01*
X0063894Y0101371D01*
X0063971Y0101497D01*
X0064052Y0101621D01*
X0064136Y0101743D01*
X0064223Y0101862D01*
X0064314Y0101979D01*
X0064408Y0102094D01*
X0064504Y0102206D01*
X0064604Y0102316D01*
X0064706Y0102422D01*
X0064812Y0102526D01*
X0064920Y0102627D01*
X0065031Y0102725D01*
X0065144Y0102821D01*
X0065260Y0102913D01*
X0065378Y0103002D01*
X0065499Y0103087D01*
X0065622Y0103170D01*
X0065747Y0103249D01*
X0065874Y0103325D01*
X0066003Y0103397D01*
X0066134Y0103466D01*
X0066267Y0103531D01*
X0066402Y0103592D01*
X0066538Y0103650D01*
X0066675Y0103705D01*
X0066814Y0103755D01*
X0066955Y0103802D01*
X0067096Y0103845D01*
X0067239Y0103885D01*
X0067383Y0103920D01*
X0067527Y0103952D01*
X0067673Y0103979D01*
X0067819Y0104003D01*
X0067966Y0104023D01*
X0068113Y0104039D01*
X0068260Y0104051D01*
X0068408Y0104059D01*
X0068556Y0104063D01*
X0068704Y0104063D01*
X0068852Y0104059D01*
X0069000Y0104051D01*
X0069147Y0104039D01*
X0069294Y0104023D01*
X0069441Y0104003D01*
X0069587Y0103979D01*
X0069733Y0103952D01*
X0069877Y0103920D01*
X0070021Y0103885D01*
X0070164Y0103845D01*
X0070305Y0103802D01*
X0070446Y0103755D01*
X0070585Y0103705D01*
X0070722Y0103650D01*
X0070858Y0103592D01*
X0070993Y0103531D01*
X0071126Y0103466D01*
X0071257Y0103397D01*
X0071386Y0103325D01*
X0071513Y0103249D01*
X0071638Y0103170D01*
X0071761Y0103087D01*
X0071882Y0103002D01*
X0072000Y0102913D01*
X0072116Y0102821D01*
X0072229Y0102725D01*
X0072340Y0102627D01*
X0072448Y0102526D01*
X0072554Y0102422D01*
X0072656Y0102316D01*
X0072756Y0102206D01*
X0072852Y0102094D01*
X0072946Y0101979D01*
X0073037Y0101862D01*
X0073124Y0101743D01*
X0073208Y0101621D01*
X0073289Y0101497D01*
X0073366Y0101371D01*
X0073440Y0101243D01*
X0073511Y0101113D01*
X0073578Y0100981D01*
X0073641Y0100847D01*
X0073701Y0100712D01*
X0073757Y0100575D01*
X0073810Y0100436D01*
X0073858Y0100296D01*
X0073903Y0100155D01*
X0073944Y0100013D01*
X0073982Y0099870D01*
X0074015Y0099726D01*
X0074045Y0099581D01*
X0074071Y0099435D01*
X0074092Y0099289D01*
X0074110Y0099142D01*
X0074124Y0098995D01*
X0074134Y0098847D01*
X0074140Y0098699D01*
X0074142Y0098551D01*
X0074140Y0098403D01*
X0074134Y0098255D01*
X0074124Y0098107D01*
X0074110Y0097960D01*
X0074092Y0097813D01*
X0074071Y0097667D01*
X0074045Y0097521D01*
X0074015Y0097376D01*
X0073982Y0097232D01*
X0073944Y0097089D01*
X0073903Y0096947D01*
X0073858Y0096806D01*
X0073810Y0096666D01*
X0073757Y0096527D01*
X0073701Y0096390D01*
X0073641Y0096255D01*
X0073578Y0096121D01*
X0073511Y0095989D01*
X0073440Y0095859D01*
X0073366Y0095731D01*
X0073289Y0095605D01*
X0073208Y0095481D01*
X0073124Y0095359D01*
X0073037Y0095240D01*
X0072946Y0095123D01*
X0072852Y0095008D01*
X0072756Y0094896D01*
X0072656Y0094786D01*
X0072554Y0094680D01*
X0072448Y0094576D01*
X0072340Y0094475D01*
X0072229Y0094377D01*
X0072116Y0094281D01*
X0072000Y0094189D01*
X0071882Y0094100D01*
X0071761Y0094015D01*
X0071638Y0093932D01*
X0071513Y0093853D01*
X0071386Y0093777D01*
X0071257Y0093705D01*
X0071126Y0093636D01*
X0070993Y0093571D01*
X0070858Y0093510D01*
X0070722Y0093452D01*
X0070585Y0093397D01*
X0070446Y0093347D01*
X0070305Y0093300D01*
X0070164Y0093257D01*
X0070021Y0093217D01*
X0069877Y0093182D01*
X0069733Y0093150D01*
X0069587Y0093123D01*
X0069441Y0093099D01*
X0069294Y0093079D01*
X0069147Y0093063D01*
X0069000Y0093051D01*
X0068852Y0093043D01*
X0068704Y0093039D01*
X0068556Y0093039D01*
X0068408Y0093043D01*
X0068260Y0093051D01*
X0068113Y0093063D01*
X0067966Y0093079D01*
X0067819Y0093099D01*
X0067673Y0093123D01*
X0067527Y0093150D01*
X0067383Y0093182D01*
X0067239Y0093217D01*
X0067096Y0093257D01*
X0066955Y0093300D01*
X0066814Y0093347D01*
X0066675Y0093397D01*
X0066538Y0093452D01*
X0066402Y0093510D01*
X0066267Y0093571D01*
X0066134Y0093636D01*
X0066003Y0093705D01*
X0065874Y0093777D01*
X0065747Y0093853D01*
X0065622Y0093932D01*
X0065499Y0094015D01*
X0065378Y0094100D01*
X0065260Y0094189D01*
X0065144Y0094281D01*
X0065031Y0094377D01*
X0064920Y0094475D01*
X0064812Y0094576D01*
X0064706Y0094680D01*
X0064604Y0094786D01*
X0064504Y0094896D01*
X0064408Y0095008D01*
X0064314Y0095123D01*
X0064223Y0095240D01*
X0064136Y0095359D01*
X0064052Y0095481D01*
X0063971Y0095605D01*
X0063894Y0095731D01*
X0063820Y0095859D01*
X0063749Y0095989D01*
X0063682Y0096121D01*
X0063619Y0096255D01*
X0063559Y0096390D01*
X0063503Y0096527D01*
X0063450Y0096666D01*
X0063402Y0096806D01*
X0063357Y0096947D01*
X0063316Y0097089D01*
X0063278Y0097232D01*
X0063245Y0097376D01*
X0063215Y0097521D01*
X0063189Y0097667D01*
X0063168Y0097813D01*
X0063150Y0097960D01*
X0063136Y0098107D01*
X0063126Y0098255D01*
X0063120Y0098403D01*
X0063118Y0098551D01*
X0028079Y0221386D02*
X0028081Y0221534D01*
X0028087Y0221682D01*
X0028097Y0221830D01*
X0028111Y0221977D01*
X0028129Y0222124D01*
X0028150Y0222270D01*
X0028176Y0222416D01*
X0028206Y0222561D01*
X0028239Y0222705D01*
X0028277Y0222848D01*
X0028318Y0222990D01*
X0028363Y0223131D01*
X0028411Y0223271D01*
X0028464Y0223410D01*
X0028520Y0223547D01*
X0028580Y0223682D01*
X0028643Y0223816D01*
X0028710Y0223948D01*
X0028781Y0224078D01*
X0028855Y0224206D01*
X0028932Y0224332D01*
X0029013Y0224456D01*
X0029097Y0224578D01*
X0029184Y0224697D01*
X0029275Y0224814D01*
X0029369Y0224929D01*
X0029465Y0225041D01*
X0029565Y0225151D01*
X0029667Y0225257D01*
X0029773Y0225361D01*
X0029881Y0225462D01*
X0029992Y0225560D01*
X0030105Y0225656D01*
X0030221Y0225748D01*
X0030339Y0225837D01*
X0030460Y0225922D01*
X0030583Y0226005D01*
X0030708Y0226084D01*
X0030835Y0226160D01*
X0030964Y0226232D01*
X0031095Y0226301D01*
X0031228Y0226366D01*
X0031363Y0226427D01*
X0031499Y0226485D01*
X0031636Y0226540D01*
X0031775Y0226590D01*
X0031916Y0226637D01*
X0032057Y0226680D01*
X0032200Y0226720D01*
X0032344Y0226755D01*
X0032488Y0226787D01*
X0032634Y0226814D01*
X0032780Y0226838D01*
X0032927Y0226858D01*
X0033074Y0226874D01*
X0033221Y0226886D01*
X0033369Y0226894D01*
X0033517Y0226898D01*
X0033665Y0226898D01*
X0033813Y0226894D01*
X0033961Y0226886D01*
X0034108Y0226874D01*
X0034255Y0226858D01*
X0034402Y0226838D01*
X0034548Y0226814D01*
X0034694Y0226787D01*
X0034838Y0226755D01*
X0034982Y0226720D01*
X0035125Y0226680D01*
X0035266Y0226637D01*
X0035407Y0226590D01*
X0035546Y0226540D01*
X0035683Y0226485D01*
X0035819Y0226427D01*
X0035954Y0226366D01*
X0036087Y0226301D01*
X0036218Y0226232D01*
X0036347Y0226160D01*
X0036474Y0226084D01*
X0036599Y0226005D01*
X0036722Y0225922D01*
X0036843Y0225837D01*
X0036961Y0225748D01*
X0037077Y0225656D01*
X0037190Y0225560D01*
X0037301Y0225462D01*
X0037409Y0225361D01*
X0037515Y0225257D01*
X0037617Y0225151D01*
X0037717Y0225041D01*
X0037813Y0224929D01*
X0037907Y0224814D01*
X0037998Y0224697D01*
X0038085Y0224578D01*
X0038169Y0224456D01*
X0038250Y0224332D01*
X0038327Y0224206D01*
X0038401Y0224078D01*
X0038472Y0223948D01*
X0038539Y0223816D01*
X0038602Y0223682D01*
X0038662Y0223547D01*
X0038718Y0223410D01*
X0038771Y0223271D01*
X0038819Y0223131D01*
X0038864Y0222990D01*
X0038905Y0222848D01*
X0038943Y0222705D01*
X0038976Y0222561D01*
X0039006Y0222416D01*
X0039032Y0222270D01*
X0039053Y0222124D01*
X0039071Y0221977D01*
X0039085Y0221830D01*
X0039095Y0221682D01*
X0039101Y0221534D01*
X0039103Y0221386D01*
X0039101Y0221238D01*
X0039095Y0221090D01*
X0039085Y0220942D01*
X0039071Y0220795D01*
X0039053Y0220648D01*
X0039032Y0220502D01*
X0039006Y0220356D01*
X0038976Y0220211D01*
X0038943Y0220067D01*
X0038905Y0219924D01*
X0038864Y0219782D01*
X0038819Y0219641D01*
X0038771Y0219501D01*
X0038718Y0219362D01*
X0038662Y0219225D01*
X0038602Y0219090D01*
X0038539Y0218956D01*
X0038472Y0218824D01*
X0038401Y0218694D01*
X0038327Y0218566D01*
X0038250Y0218440D01*
X0038169Y0218316D01*
X0038085Y0218194D01*
X0037998Y0218075D01*
X0037907Y0217958D01*
X0037813Y0217843D01*
X0037717Y0217731D01*
X0037617Y0217621D01*
X0037515Y0217515D01*
X0037409Y0217411D01*
X0037301Y0217310D01*
X0037190Y0217212D01*
X0037077Y0217116D01*
X0036961Y0217024D01*
X0036843Y0216935D01*
X0036722Y0216850D01*
X0036599Y0216767D01*
X0036474Y0216688D01*
X0036347Y0216612D01*
X0036218Y0216540D01*
X0036087Y0216471D01*
X0035954Y0216406D01*
X0035819Y0216345D01*
X0035683Y0216287D01*
X0035546Y0216232D01*
X0035407Y0216182D01*
X0035266Y0216135D01*
X0035125Y0216092D01*
X0034982Y0216052D01*
X0034838Y0216017D01*
X0034694Y0215985D01*
X0034548Y0215958D01*
X0034402Y0215934D01*
X0034255Y0215914D01*
X0034108Y0215898D01*
X0033961Y0215886D01*
X0033813Y0215878D01*
X0033665Y0215874D01*
X0033517Y0215874D01*
X0033369Y0215878D01*
X0033221Y0215886D01*
X0033074Y0215898D01*
X0032927Y0215914D01*
X0032780Y0215934D01*
X0032634Y0215958D01*
X0032488Y0215985D01*
X0032344Y0216017D01*
X0032200Y0216052D01*
X0032057Y0216092D01*
X0031916Y0216135D01*
X0031775Y0216182D01*
X0031636Y0216232D01*
X0031499Y0216287D01*
X0031363Y0216345D01*
X0031228Y0216406D01*
X0031095Y0216471D01*
X0030964Y0216540D01*
X0030835Y0216612D01*
X0030708Y0216688D01*
X0030583Y0216767D01*
X0030460Y0216850D01*
X0030339Y0216935D01*
X0030221Y0217024D01*
X0030105Y0217116D01*
X0029992Y0217212D01*
X0029881Y0217310D01*
X0029773Y0217411D01*
X0029667Y0217515D01*
X0029565Y0217621D01*
X0029465Y0217731D01*
X0029369Y0217843D01*
X0029275Y0217958D01*
X0029184Y0218075D01*
X0029097Y0218194D01*
X0029013Y0218316D01*
X0028932Y0218440D01*
X0028855Y0218566D01*
X0028781Y0218694D01*
X0028710Y0218824D01*
X0028643Y0218956D01*
X0028580Y0219090D01*
X0028520Y0219225D01*
X0028464Y0219362D01*
X0028411Y0219501D01*
X0028363Y0219641D01*
X0028318Y0219782D01*
X0028277Y0219924D01*
X0028239Y0220067D01*
X0028206Y0220211D01*
X0028176Y0220356D01*
X0028150Y0220502D01*
X0028129Y0220648D01*
X0028111Y0220795D01*
X0028097Y0220942D01*
X0028087Y0221090D01*
X0028081Y0221238D01*
X0028079Y0221386D01*
D12*
X0033591Y0221386D03*
X0068630Y0098551D03*
X0177291Y0082016D03*
D13*
X0131307Y0123344D03*
X0128157Y0123344D03*
X0125008Y0123344D03*
X0121858Y0123344D03*
X0118709Y0123344D03*
X0115559Y0123344D03*
X0112409Y0123344D03*
X0109260Y0123344D03*
X0109260Y0157144D03*
X0112409Y0157144D03*
X0115559Y0157144D03*
X0118709Y0157144D03*
X0121858Y0157144D03*
X0125008Y0157144D03*
X0128157Y0157144D03*
X0131307Y0157144D03*
D14*
X0137183Y0151268D03*
X0137183Y0148118D03*
X0137183Y0144969D03*
X0137183Y0141819D03*
X0137183Y0138669D03*
X0137183Y0135520D03*
X0137183Y0132370D03*
X0137183Y0129220D03*
X0103383Y0129220D03*
X0103383Y0132370D03*
X0103383Y0135520D03*
X0103383Y0138669D03*
X0103383Y0141819D03*
X0103383Y0144969D03*
X0103383Y0148118D03*
X0103383Y0151268D03*
D15*
X0094063Y0211182D03*
X0094063Y0218282D03*
X0081228Y0216393D03*
X0081228Y0209293D03*
X0066819Y0208663D03*
X0066819Y0215763D03*
X0023079Y0204778D03*
X0023079Y0197678D03*
D16*
X0156150Y0104457D03*
X0156150Y0093827D03*
D17*
X0032075Y0061228D03*
X0032075Y0058669D03*
X0032075Y0056110D03*
X0032075Y0053551D03*
X0032075Y0050992D03*
D18*
X0021346Y0041606D03*
X0021346Y0070614D03*
D19*
X0021346Y0056110D03*
D20*
X0154457Y0054176D02*
X0154457Y0059776D01*
X0164299Y0059776D02*
X0164299Y0054176D01*
X0172173Y0054176D02*
X0172173Y0059776D01*
X0182016Y0059776D02*
X0182016Y0054176D01*
D21*
X0194220Y0046307D03*
X0142252Y0046307D03*
D22*
X0200756Y0082567D03*
X0200756Y0092567D03*
X0200756Y0102567D03*
X0200756Y0112567D03*
X0200756Y0122567D03*
X0200756Y0132567D03*
X0200756Y0142567D03*
X0200756Y0152567D03*
X0200756Y0162567D03*
X0200756Y0172567D03*
X0200756Y0182567D03*
X0200756Y0192567D03*
X0200756Y0202567D03*
X0164457Y0203984D03*
X0164457Y0213984D03*
X0154457Y0213984D03*
X0154457Y0203984D03*
X0144457Y0203984D03*
X0144457Y0213984D03*
D23*
X0200756Y0212567D03*
D24*
X0043197Y0142134D02*
X0018394Y0142134D01*
X0018394Y0093315D02*
X0043197Y0093315D01*
D25*
X0039654Y0089969D03*
X0021937Y0089969D03*
X0021937Y0121465D03*
X0021937Y0138787D03*
X0039654Y0138787D03*
X0039654Y0121465D03*
X0039654Y0170283D03*
X0021937Y0170283D03*
D26*
X0069417Y0163039D03*
X0080047Y0163039D03*
X0084102Y0178157D03*
X0094732Y0178157D03*
X0099535Y0193551D03*
X0110165Y0193551D03*
X0112291Y0178394D03*
X0122921Y0178394D03*
X0124811Y0166858D03*
X0135441Y0166858D03*
X0146307Y0175047D03*
X0156937Y0175047D03*
X0164181Y0182764D03*
X0174811Y0182764D03*
X0177409Y0170047D03*
X0188039Y0170047D03*
D27*
X0056382Y0222488D03*
X0053082Y0222488D03*
D28*
X0116031Y0102921D03*
X0128630Y0102921D03*
D29*
X0128630Y0117094D03*
X0116031Y0117094D03*
D30*
X0052134Y0212964D03*
X0052134Y0216264D03*
D31*
X0108315Y0211583D03*
D32*
X0108315Y0221583D03*
D33*
X0057094Y0204929D03*
X0057094Y0202961D03*
X0057094Y0200992D03*
X0057094Y0199024D03*
X0057094Y0197055D03*
X0046071Y0197055D03*
X0046071Y0199024D03*
X0046071Y0200992D03*
X0046071Y0202961D03*
X0046071Y0204929D03*
D34*
X0051583Y0200992D03*
D35*
X0086465Y0086465D02*
X0094732Y0086465D01*
X0114417Y0085677D02*
X0122685Y0085677D01*
X0122685Y0045677D02*
X0114417Y0045677D01*
X0094732Y0046465D02*
X0086465Y0046465D01*
M02*
