%
M48
M72
T01C0.02362
T02C0.02400
T03C0.03150
T04C0.03600
T05C0.04724
T06C0.05512
T07C0.08900
T08C0.11024
%
T01
X48945Y138315
X52094Y129654
X51504Y76110
X54457Y68236
X62331Y44614
X78079Y56425
X101701Y52488
X105638Y76110
X129260Y60362
X148945Y72173
T02
X82409Y141563
X103669Y124831
X119417Y136642
X124831Y136150
X126307Y141071
X131228Y141071
X123846Y151406
X116465Y163709
X120894Y166169
X108591Y174043
X107606Y185362
X115972Y193236
X128276Y204063
X142055Y177980
X150421Y176996
X139594Y166661
X142547Y159772
X142547Y152390
X142547Y145992
X149437Y150913
X149437Y155835
X161740Y168630
X162724Y155343
X176012Y151898
X188315Y135165
X193236Y140087
X182902Y130736
X145500Y133197
X135657Y155343
X168138Y185854
X186346Y186346
X193236Y189791
X89890Y201110
X72665Y216366
X49043Y219811
T03
X108315Y213945
X108315Y223945
T04
X154457Y56976
X164299Y56976
X172173Y56976
X182016Y56976
T05
X144457Y203984
X144457Y213984
X154457Y213984
X154457Y203984
X164457Y203984
X164457Y213984
X200756Y212567
X200756Y202567
X200756Y192567
X200756Y182567
X200756Y172567
X200756Y162567
X200756Y152567
X200756Y142567
X200756Y132567
X200756Y122567
X200756Y112567
X200756Y102567
X200756Y92567
X200756Y82567
T06
X90598Y86465
X118551Y85677
X118551Y45677
X90598Y46465
T07
X142252Y46307
X194220Y46307
T08
X68630Y98551
X33591Y221386
X177291Y82016
M30
