G75*
%MOIN*%
%OFA0B0*%
%FSLAX25Y25*%
%IPPOS*%
%LPD*%
%AMOC8*
5,1,8,0,0,1.08239X$1,22.5*
%
%ADD10C,0.00200*%
%ADD11C,0.00000*%
%ADD12C,0.00600*%
%ADD13C,0.00300*%
%ADD14C,0.00500*%
%ADD15C,0.00400*%
%ADD16C,0.00100*%
%ADD17C,0.01200*%
%ADD18C,0.01000*%
%ADD19C,0.00700*%
%ADD20C,0.00800*%
D10*
X0204438Y0032628D02*
X0205539Y0034095D01*
X0206640Y0032628D01*
X0206640Y0034837D02*
X0204438Y0034837D01*
X0204438Y0036305D01*
X0205172Y0037047D02*
X0206640Y0037047D01*
X0205906Y0037047D02*
X0205172Y0037781D01*
X0205172Y0038148D01*
X0205172Y0039256D02*
X0205172Y0039990D01*
X0205539Y0040357D01*
X0206640Y0040357D01*
X0206640Y0039256D01*
X0206273Y0038889D01*
X0205906Y0039256D01*
X0205906Y0040357D01*
X0205172Y0041099D02*
X0205172Y0042200D01*
X0205539Y0042567D01*
X0206640Y0042567D01*
X0206640Y0043309D02*
X0204438Y0043309D01*
X0205172Y0044410D02*
X0205906Y0043309D01*
X0206640Y0044410D01*
X0206640Y0041099D02*
X0205172Y0041099D01*
X0205539Y0035571D02*
X0205539Y0034837D01*
X0204805Y0047360D02*
X0205539Y0048094D01*
X0206640Y0048094D01*
X0205539Y0048094D02*
X0204805Y0048828D01*
X0204438Y0048828D01*
X0204438Y0047360D02*
X0204805Y0047360D01*
X0206273Y0049937D02*
X0206640Y0049937D01*
X0206640Y0050304D01*
X0206273Y0050304D01*
X0206273Y0049937D01*
X0206640Y0050304D02*
X0207374Y0049570D01*
X0206640Y0053253D02*
X0204438Y0053253D01*
X0204438Y0054721D01*
X0204805Y0055463D02*
X0205172Y0055463D01*
X0205539Y0055830D01*
X0205539Y0056564D01*
X0205906Y0056931D01*
X0206273Y0056931D01*
X0206640Y0056564D01*
X0206640Y0055830D01*
X0206273Y0055463D01*
X0206640Y0054721D02*
X0206640Y0053253D01*
X0205539Y0053253D02*
X0205539Y0053987D01*
X0204805Y0055463D02*
X0204438Y0055830D01*
X0204438Y0056564D01*
X0204805Y0056931D01*
X0204438Y0057673D02*
X0206640Y0057673D01*
X0206640Y0059141D01*
X0206273Y0059883D02*
X0206640Y0060250D01*
X0206640Y0060984D01*
X0206273Y0061351D01*
X0205906Y0061351D01*
X0205539Y0060984D01*
X0205539Y0060617D01*
X0205539Y0060984D02*
X0205172Y0061351D01*
X0204805Y0061351D01*
X0204438Y0060984D01*
X0204438Y0060250D01*
X0204805Y0059883D01*
X0204438Y0059141D02*
X0204438Y0057673D01*
X0205539Y0057673D02*
X0205539Y0058407D01*
X0204805Y0062093D02*
X0204438Y0062460D01*
X0204438Y0063194D01*
X0204805Y0063561D01*
X0205172Y0063561D01*
X0206640Y0062093D01*
X0206640Y0063561D01*
X0206273Y0064303D02*
X0206640Y0064669D01*
X0206640Y0065403D01*
X0206273Y0065770D01*
X0205906Y0065770D01*
X0205539Y0065403D01*
X0205539Y0065036D01*
X0205539Y0065403D02*
X0205172Y0065770D01*
X0204805Y0065770D01*
X0204438Y0065403D01*
X0204438Y0064669D01*
X0204805Y0064303D01*
X0204438Y0068722D02*
X0204438Y0070190D01*
X0205539Y0069456D02*
X0205539Y0068722D01*
X0206640Y0068722D02*
X0204438Y0068722D01*
X0205172Y0071299D02*
X0205172Y0072033D01*
X0205539Y0072400D01*
X0206640Y0072400D01*
X0206640Y0071299D01*
X0206273Y0070932D01*
X0205906Y0071299D01*
X0205906Y0072400D01*
X0206640Y0073142D02*
X0206640Y0073876D01*
X0206640Y0073509D02*
X0204438Y0073509D01*
X0204438Y0073142D01*
X0204438Y0074615D02*
X0204438Y0074982D01*
X0206640Y0074982D01*
X0206640Y0074615D02*
X0206640Y0075349D01*
X0206640Y0078298D02*
X0205172Y0079766D01*
X0204805Y0079766D01*
X0204438Y0079399D01*
X0204438Y0078665D01*
X0204805Y0078298D01*
X0206640Y0078298D02*
X0206640Y0079766D01*
X0206273Y0080508D02*
X0204805Y0081976D01*
X0206273Y0081976D01*
X0206640Y0081609D01*
X0206640Y0080875D01*
X0206273Y0080508D01*
X0204805Y0080508D01*
X0204438Y0080875D01*
X0204438Y0081609D01*
X0204805Y0081976D01*
X0205172Y0082718D02*
X0204438Y0083452D01*
X0206640Y0083452D01*
X0206640Y0082718D02*
X0206640Y0084186D01*
X0206273Y0084928D02*
X0206640Y0085295D01*
X0206640Y0086029D01*
X0206273Y0086396D01*
X0205906Y0086396D01*
X0205539Y0086029D01*
X0205539Y0084928D01*
X0206273Y0084928D01*
X0205539Y0084928D02*
X0204805Y0085662D01*
X0204438Y0086396D01*
D11*
X0011150Y0032803D02*
X0011150Y0229654D01*
X0208000Y0229654D01*
X0208000Y0032803D01*
X0011150Y0032803D01*
X0063118Y0098551D02*
X0063120Y0098699D01*
X0063126Y0098847D01*
X0063136Y0098995D01*
X0063150Y0099142D01*
X0063168Y0099289D01*
X0063189Y0099435D01*
X0063215Y0099581D01*
X0063245Y0099726D01*
X0063278Y0099870D01*
X0063316Y0100013D01*
X0063357Y0100155D01*
X0063402Y0100296D01*
X0063450Y0100436D01*
X0063503Y0100575D01*
X0063559Y0100712D01*
X0063619Y0100847D01*
X0063682Y0100981D01*
X0063749Y0101113D01*
X0063820Y0101243D01*
X0063894Y0101371D01*
X0063971Y0101497D01*
X0064052Y0101621D01*
X0064136Y0101743D01*
X0064223Y0101862D01*
X0064314Y0101979D01*
X0064408Y0102094D01*
X0064504Y0102206D01*
X0064604Y0102316D01*
X0064706Y0102422D01*
X0064812Y0102526D01*
X0064920Y0102627D01*
X0065031Y0102725D01*
X0065144Y0102821D01*
X0065260Y0102913D01*
X0065378Y0103002D01*
X0065499Y0103087D01*
X0065622Y0103170D01*
X0065747Y0103249D01*
X0065874Y0103325D01*
X0066003Y0103397D01*
X0066134Y0103466D01*
X0066267Y0103531D01*
X0066402Y0103592D01*
X0066538Y0103650D01*
X0066675Y0103705D01*
X0066814Y0103755D01*
X0066955Y0103802D01*
X0067096Y0103845D01*
X0067239Y0103885D01*
X0067383Y0103920D01*
X0067527Y0103952D01*
X0067673Y0103979D01*
X0067819Y0104003D01*
X0067966Y0104023D01*
X0068113Y0104039D01*
X0068260Y0104051D01*
X0068408Y0104059D01*
X0068556Y0104063D01*
X0068704Y0104063D01*
X0068852Y0104059D01*
X0069000Y0104051D01*
X0069147Y0104039D01*
X0069294Y0104023D01*
X0069441Y0104003D01*
X0069587Y0103979D01*
X0069733Y0103952D01*
X0069877Y0103920D01*
X0070021Y0103885D01*
X0070164Y0103845D01*
X0070305Y0103802D01*
X0070446Y0103755D01*
X0070585Y0103705D01*
X0070722Y0103650D01*
X0070858Y0103592D01*
X0070993Y0103531D01*
X0071126Y0103466D01*
X0071257Y0103397D01*
X0071386Y0103325D01*
X0071513Y0103249D01*
X0071638Y0103170D01*
X0071761Y0103087D01*
X0071882Y0103002D01*
X0072000Y0102913D01*
X0072116Y0102821D01*
X0072229Y0102725D01*
X0072340Y0102627D01*
X0072448Y0102526D01*
X0072554Y0102422D01*
X0072656Y0102316D01*
X0072756Y0102206D01*
X0072852Y0102094D01*
X0072946Y0101979D01*
X0073037Y0101862D01*
X0073124Y0101743D01*
X0073208Y0101621D01*
X0073289Y0101497D01*
X0073366Y0101371D01*
X0073440Y0101243D01*
X0073511Y0101113D01*
X0073578Y0100981D01*
X0073641Y0100847D01*
X0073701Y0100712D01*
X0073757Y0100575D01*
X0073810Y0100436D01*
X0073858Y0100296D01*
X0073903Y0100155D01*
X0073944Y0100013D01*
X0073982Y0099870D01*
X0074015Y0099726D01*
X0074045Y0099581D01*
X0074071Y0099435D01*
X0074092Y0099289D01*
X0074110Y0099142D01*
X0074124Y0098995D01*
X0074134Y0098847D01*
X0074140Y0098699D01*
X0074142Y0098551D01*
X0074140Y0098403D01*
X0074134Y0098255D01*
X0074124Y0098107D01*
X0074110Y0097960D01*
X0074092Y0097813D01*
X0074071Y0097667D01*
X0074045Y0097521D01*
X0074015Y0097376D01*
X0073982Y0097232D01*
X0073944Y0097089D01*
X0073903Y0096947D01*
X0073858Y0096806D01*
X0073810Y0096666D01*
X0073757Y0096527D01*
X0073701Y0096390D01*
X0073641Y0096255D01*
X0073578Y0096121D01*
X0073511Y0095989D01*
X0073440Y0095859D01*
X0073366Y0095731D01*
X0073289Y0095605D01*
X0073208Y0095481D01*
X0073124Y0095359D01*
X0073037Y0095240D01*
X0072946Y0095123D01*
X0072852Y0095008D01*
X0072756Y0094896D01*
X0072656Y0094786D01*
X0072554Y0094680D01*
X0072448Y0094576D01*
X0072340Y0094475D01*
X0072229Y0094377D01*
X0072116Y0094281D01*
X0072000Y0094189D01*
X0071882Y0094100D01*
X0071761Y0094015D01*
X0071638Y0093932D01*
X0071513Y0093853D01*
X0071386Y0093777D01*
X0071257Y0093705D01*
X0071126Y0093636D01*
X0070993Y0093571D01*
X0070858Y0093510D01*
X0070722Y0093452D01*
X0070585Y0093397D01*
X0070446Y0093347D01*
X0070305Y0093300D01*
X0070164Y0093257D01*
X0070021Y0093217D01*
X0069877Y0093182D01*
X0069733Y0093150D01*
X0069587Y0093123D01*
X0069441Y0093099D01*
X0069294Y0093079D01*
X0069147Y0093063D01*
X0069000Y0093051D01*
X0068852Y0093043D01*
X0068704Y0093039D01*
X0068556Y0093039D01*
X0068408Y0093043D01*
X0068260Y0093051D01*
X0068113Y0093063D01*
X0067966Y0093079D01*
X0067819Y0093099D01*
X0067673Y0093123D01*
X0067527Y0093150D01*
X0067383Y0093182D01*
X0067239Y0093217D01*
X0067096Y0093257D01*
X0066955Y0093300D01*
X0066814Y0093347D01*
X0066675Y0093397D01*
X0066538Y0093452D01*
X0066402Y0093510D01*
X0066267Y0093571D01*
X0066134Y0093636D01*
X0066003Y0093705D01*
X0065874Y0093777D01*
X0065747Y0093853D01*
X0065622Y0093932D01*
X0065499Y0094015D01*
X0065378Y0094100D01*
X0065260Y0094189D01*
X0065144Y0094281D01*
X0065031Y0094377D01*
X0064920Y0094475D01*
X0064812Y0094576D01*
X0064706Y0094680D01*
X0064604Y0094786D01*
X0064504Y0094896D01*
X0064408Y0095008D01*
X0064314Y0095123D01*
X0064223Y0095240D01*
X0064136Y0095359D01*
X0064052Y0095481D01*
X0063971Y0095605D01*
X0063894Y0095731D01*
X0063820Y0095859D01*
X0063749Y0095989D01*
X0063682Y0096121D01*
X0063619Y0096255D01*
X0063559Y0096390D01*
X0063503Y0096527D01*
X0063450Y0096666D01*
X0063402Y0096806D01*
X0063357Y0096947D01*
X0063316Y0097089D01*
X0063278Y0097232D01*
X0063245Y0097376D01*
X0063215Y0097521D01*
X0063189Y0097667D01*
X0063168Y0097813D01*
X0063150Y0097960D01*
X0063136Y0098107D01*
X0063126Y0098255D01*
X0063120Y0098403D01*
X0063118Y0098551D01*
X0028079Y0221386D02*
X0028081Y0221534D01*
X0028087Y0221682D01*
X0028097Y0221830D01*
X0028111Y0221977D01*
X0028129Y0222124D01*
X0028150Y0222270D01*
X0028176Y0222416D01*
X0028206Y0222561D01*
X0028239Y0222705D01*
X0028277Y0222848D01*
X0028318Y0222990D01*
X0028363Y0223131D01*
X0028411Y0223271D01*
X0028464Y0223410D01*
X0028520Y0223547D01*
X0028580Y0223682D01*
X0028643Y0223816D01*
X0028710Y0223948D01*
X0028781Y0224078D01*
X0028855Y0224206D01*
X0028932Y0224332D01*
X0029013Y0224456D01*
X0029097Y0224578D01*
X0029184Y0224697D01*
X0029275Y0224814D01*
X0029369Y0224929D01*
X0029465Y0225041D01*
X0029565Y0225151D01*
X0029667Y0225257D01*
X0029773Y0225361D01*
X0029881Y0225462D01*
X0029992Y0225560D01*
X0030105Y0225656D01*
X0030221Y0225748D01*
X0030339Y0225837D01*
X0030460Y0225922D01*
X0030583Y0226005D01*
X0030708Y0226084D01*
X0030835Y0226160D01*
X0030964Y0226232D01*
X0031095Y0226301D01*
X0031228Y0226366D01*
X0031363Y0226427D01*
X0031499Y0226485D01*
X0031636Y0226540D01*
X0031775Y0226590D01*
X0031916Y0226637D01*
X0032057Y0226680D01*
X0032200Y0226720D01*
X0032344Y0226755D01*
X0032488Y0226787D01*
X0032634Y0226814D01*
X0032780Y0226838D01*
X0032927Y0226858D01*
X0033074Y0226874D01*
X0033221Y0226886D01*
X0033369Y0226894D01*
X0033517Y0226898D01*
X0033665Y0226898D01*
X0033813Y0226894D01*
X0033961Y0226886D01*
X0034108Y0226874D01*
X0034255Y0226858D01*
X0034402Y0226838D01*
X0034548Y0226814D01*
X0034694Y0226787D01*
X0034838Y0226755D01*
X0034982Y0226720D01*
X0035125Y0226680D01*
X0035266Y0226637D01*
X0035407Y0226590D01*
X0035546Y0226540D01*
X0035683Y0226485D01*
X0035819Y0226427D01*
X0035954Y0226366D01*
X0036087Y0226301D01*
X0036218Y0226232D01*
X0036347Y0226160D01*
X0036474Y0226084D01*
X0036599Y0226005D01*
X0036722Y0225922D01*
X0036843Y0225837D01*
X0036961Y0225748D01*
X0037077Y0225656D01*
X0037190Y0225560D01*
X0037301Y0225462D01*
X0037409Y0225361D01*
X0037515Y0225257D01*
X0037617Y0225151D01*
X0037717Y0225041D01*
X0037813Y0224929D01*
X0037907Y0224814D01*
X0037998Y0224697D01*
X0038085Y0224578D01*
X0038169Y0224456D01*
X0038250Y0224332D01*
X0038327Y0224206D01*
X0038401Y0224078D01*
X0038472Y0223948D01*
X0038539Y0223816D01*
X0038602Y0223682D01*
X0038662Y0223547D01*
X0038718Y0223410D01*
X0038771Y0223271D01*
X0038819Y0223131D01*
X0038864Y0222990D01*
X0038905Y0222848D01*
X0038943Y0222705D01*
X0038976Y0222561D01*
X0039006Y0222416D01*
X0039032Y0222270D01*
X0039053Y0222124D01*
X0039071Y0221977D01*
X0039085Y0221830D01*
X0039095Y0221682D01*
X0039101Y0221534D01*
X0039103Y0221386D01*
X0039101Y0221238D01*
X0039095Y0221090D01*
X0039085Y0220942D01*
X0039071Y0220795D01*
X0039053Y0220648D01*
X0039032Y0220502D01*
X0039006Y0220356D01*
X0038976Y0220211D01*
X0038943Y0220067D01*
X0038905Y0219924D01*
X0038864Y0219782D01*
X0038819Y0219641D01*
X0038771Y0219501D01*
X0038718Y0219362D01*
X0038662Y0219225D01*
X0038602Y0219090D01*
X0038539Y0218956D01*
X0038472Y0218824D01*
X0038401Y0218694D01*
X0038327Y0218566D01*
X0038250Y0218440D01*
X0038169Y0218316D01*
X0038085Y0218194D01*
X0037998Y0218075D01*
X0037907Y0217958D01*
X0037813Y0217843D01*
X0037717Y0217731D01*
X0037617Y0217621D01*
X0037515Y0217515D01*
X0037409Y0217411D01*
X0037301Y0217310D01*
X0037190Y0217212D01*
X0037077Y0217116D01*
X0036961Y0217024D01*
X0036843Y0216935D01*
X0036722Y0216850D01*
X0036599Y0216767D01*
X0036474Y0216688D01*
X0036347Y0216612D01*
X0036218Y0216540D01*
X0036087Y0216471D01*
X0035954Y0216406D01*
X0035819Y0216345D01*
X0035683Y0216287D01*
X0035546Y0216232D01*
X0035407Y0216182D01*
X0035266Y0216135D01*
X0035125Y0216092D01*
X0034982Y0216052D01*
X0034838Y0216017D01*
X0034694Y0215985D01*
X0034548Y0215958D01*
X0034402Y0215934D01*
X0034255Y0215914D01*
X0034108Y0215898D01*
X0033961Y0215886D01*
X0033813Y0215878D01*
X0033665Y0215874D01*
X0033517Y0215874D01*
X0033369Y0215878D01*
X0033221Y0215886D01*
X0033074Y0215898D01*
X0032927Y0215914D01*
X0032780Y0215934D01*
X0032634Y0215958D01*
X0032488Y0215985D01*
X0032344Y0216017D01*
X0032200Y0216052D01*
X0032057Y0216092D01*
X0031916Y0216135D01*
X0031775Y0216182D01*
X0031636Y0216232D01*
X0031499Y0216287D01*
X0031363Y0216345D01*
X0031228Y0216406D01*
X0031095Y0216471D01*
X0030964Y0216540D01*
X0030835Y0216612D01*
X0030708Y0216688D01*
X0030583Y0216767D01*
X0030460Y0216850D01*
X0030339Y0216935D01*
X0030221Y0217024D01*
X0030105Y0217116D01*
X0029992Y0217212D01*
X0029881Y0217310D01*
X0029773Y0217411D01*
X0029667Y0217515D01*
X0029565Y0217621D01*
X0029465Y0217731D01*
X0029369Y0217843D01*
X0029275Y0217958D01*
X0029184Y0218075D01*
X0029097Y0218194D01*
X0029013Y0218316D01*
X0028932Y0218440D01*
X0028855Y0218566D01*
X0028781Y0218694D01*
X0028710Y0218824D01*
X0028643Y0218956D01*
X0028580Y0219090D01*
X0028520Y0219225D01*
X0028464Y0219362D01*
X0028411Y0219501D01*
X0028363Y0219641D01*
X0028318Y0219782D01*
X0028277Y0219924D01*
X0028239Y0220067D01*
X0028206Y0220211D01*
X0028176Y0220356D01*
X0028150Y0220502D01*
X0028129Y0220648D01*
X0028111Y0220795D01*
X0028097Y0220942D01*
X0028087Y0221090D01*
X0028081Y0221238D01*
X0028079Y0221386D01*
X0171779Y0082016D02*
X0171781Y0082164D01*
X0171787Y0082312D01*
X0171797Y0082460D01*
X0171811Y0082607D01*
X0171829Y0082754D01*
X0171850Y0082900D01*
X0171876Y0083046D01*
X0171906Y0083191D01*
X0171939Y0083335D01*
X0171977Y0083478D01*
X0172018Y0083620D01*
X0172063Y0083761D01*
X0172111Y0083901D01*
X0172164Y0084040D01*
X0172220Y0084177D01*
X0172280Y0084312D01*
X0172343Y0084446D01*
X0172410Y0084578D01*
X0172481Y0084708D01*
X0172555Y0084836D01*
X0172632Y0084962D01*
X0172713Y0085086D01*
X0172797Y0085208D01*
X0172884Y0085327D01*
X0172975Y0085444D01*
X0173069Y0085559D01*
X0173165Y0085671D01*
X0173265Y0085781D01*
X0173367Y0085887D01*
X0173473Y0085991D01*
X0173581Y0086092D01*
X0173692Y0086190D01*
X0173805Y0086286D01*
X0173921Y0086378D01*
X0174039Y0086467D01*
X0174160Y0086552D01*
X0174283Y0086635D01*
X0174408Y0086714D01*
X0174535Y0086790D01*
X0174664Y0086862D01*
X0174795Y0086931D01*
X0174928Y0086996D01*
X0175063Y0087057D01*
X0175199Y0087115D01*
X0175336Y0087170D01*
X0175475Y0087220D01*
X0175616Y0087267D01*
X0175757Y0087310D01*
X0175900Y0087350D01*
X0176044Y0087385D01*
X0176188Y0087417D01*
X0176334Y0087444D01*
X0176480Y0087468D01*
X0176627Y0087488D01*
X0176774Y0087504D01*
X0176921Y0087516D01*
X0177069Y0087524D01*
X0177217Y0087528D01*
X0177365Y0087528D01*
X0177513Y0087524D01*
X0177661Y0087516D01*
X0177808Y0087504D01*
X0177955Y0087488D01*
X0178102Y0087468D01*
X0178248Y0087444D01*
X0178394Y0087417D01*
X0178538Y0087385D01*
X0178682Y0087350D01*
X0178825Y0087310D01*
X0178966Y0087267D01*
X0179107Y0087220D01*
X0179246Y0087170D01*
X0179383Y0087115D01*
X0179519Y0087057D01*
X0179654Y0086996D01*
X0179787Y0086931D01*
X0179918Y0086862D01*
X0180047Y0086790D01*
X0180174Y0086714D01*
X0180299Y0086635D01*
X0180422Y0086552D01*
X0180543Y0086467D01*
X0180661Y0086378D01*
X0180777Y0086286D01*
X0180890Y0086190D01*
X0181001Y0086092D01*
X0181109Y0085991D01*
X0181215Y0085887D01*
X0181317Y0085781D01*
X0181417Y0085671D01*
X0181513Y0085559D01*
X0181607Y0085444D01*
X0181698Y0085327D01*
X0181785Y0085208D01*
X0181869Y0085086D01*
X0181950Y0084962D01*
X0182027Y0084836D01*
X0182101Y0084708D01*
X0182172Y0084578D01*
X0182239Y0084446D01*
X0182302Y0084312D01*
X0182362Y0084177D01*
X0182418Y0084040D01*
X0182471Y0083901D01*
X0182519Y0083761D01*
X0182564Y0083620D01*
X0182605Y0083478D01*
X0182643Y0083335D01*
X0182676Y0083191D01*
X0182706Y0083046D01*
X0182732Y0082900D01*
X0182753Y0082754D01*
X0182771Y0082607D01*
X0182785Y0082460D01*
X0182795Y0082312D01*
X0182801Y0082164D01*
X0182803Y0082016D01*
X0182801Y0081868D01*
X0182795Y0081720D01*
X0182785Y0081572D01*
X0182771Y0081425D01*
X0182753Y0081278D01*
X0182732Y0081132D01*
X0182706Y0080986D01*
X0182676Y0080841D01*
X0182643Y0080697D01*
X0182605Y0080554D01*
X0182564Y0080412D01*
X0182519Y0080271D01*
X0182471Y0080131D01*
X0182418Y0079992D01*
X0182362Y0079855D01*
X0182302Y0079720D01*
X0182239Y0079586D01*
X0182172Y0079454D01*
X0182101Y0079324D01*
X0182027Y0079196D01*
X0181950Y0079070D01*
X0181869Y0078946D01*
X0181785Y0078824D01*
X0181698Y0078705D01*
X0181607Y0078588D01*
X0181513Y0078473D01*
X0181417Y0078361D01*
X0181317Y0078251D01*
X0181215Y0078145D01*
X0181109Y0078041D01*
X0181001Y0077940D01*
X0180890Y0077842D01*
X0180777Y0077746D01*
X0180661Y0077654D01*
X0180543Y0077565D01*
X0180422Y0077480D01*
X0180299Y0077397D01*
X0180174Y0077318D01*
X0180047Y0077242D01*
X0179918Y0077170D01*
X0179787Y0077101D01*
X0179654Y0077036D01*
X0179519Y0076975D01*
X0179383Y0076917D01*
X0179246Y0076862D01*
X0179107Y0076812D01*
X0178966Y0076765D01*
X0178825Y0076722D01*
X0178682Y0076682D01*
X0178538Y0076647D01*
X0178394Y0076615D01*
X0178248Y0076588D01*
X0178102Y0076564D01*
X0177955Y0076544D01*
X0177808Y0076528D01*
X0177661Y0076516D01*
X0177513Y0076508D01*
X0177365Y0076504D01*
X0177217Y0076504D01*
X0177069Y0076508D01*
X0176921Y0076516D01*
X0176774Y0076528D01*
X0176627Y0076544D01*
X0176480Y0076564D01*
X0176334Y0076588D01*
X0176188Y0076615D01*
X0176044Y0076647D01*
X0175900Y0076682D01*
X0175757Y0076722D01*
X0175616Y0076765D01*
X0175475Y0076812D01*
X0175336Y0076862D01*
X0175199Y0076917D01*
X0175063Y0076975D01*
X0174928Y0077036D01*
X0174795Y0077101D01*
X0174664Y0077170D01*
X0174535Y0077242D01*
X0174408Y0077318D01*
X0174283Y0077397D01*
X0174160Y0077480D01*
X0174039Y0077565D01*
X0173921Y0077654D01*
X0173805Y0077746D01*
X0173692Y0077842D01*
X0173581Y0077940D01*
X0173473Y0078041D01*
X0173367Y0078145D01*
X0173265Y0078251D01*
X0173165Y0078361D01*
X0173069Y0078473D01*
X0172975Y0078588D01*
X0172884Y0078705D01*
X0172797Y0078824D01*
X0172713Y0078946D01*
X0172632Y0079070D01*
X0172555Y0079196D01*
X0172481Y0079324D01*
X0172410Y0079454D01*
X0172343Y0079586D01*
X0172280Y0079720D01*
X0172220Y0079855D01*
X0172164Y0079992D01*
X0172111Y0080131D01*
X0172063Y0080271D01*
X0172018Y0080412D01*
X0171977Y0080554D01*
X0171939Y0080697D01*
X0171906Y0080841D01*
X0171876Y0080986D01*
X0171850Y0081132D01*
X0171829Y0081278D01*
X0171811Y0081425D01*
X0171797Y0081572D01*
X0171787Y0081720D01*
X0171781Y0081868D01*
X0171779Y0082016D01*
D12*
X0134083Y0126445D02*
X0107882Y0126445D01*
X0106484Y0127843D01*
X0106484Y0154043D01*
X0134083Y0154043D01*
X0134083Y0126445D01*
X0108069Y0129444D02*
X0108071Y0129519D01*
X0108077Y0129593D01*
X0108087Y0129667D01*
X0108100Y0129740D01*
X0108118Y0129813D01*
X0108139Y0129884D01*
X0108164Y0129955D01*
X0108193Y0130024D01*
X0108226Y0130091D01*
X0108262Y0130156D01*
X0108301Y0130220D01*
X0108343Y0130281D01*
X0108389Y0130340D01*
X0108438Y0130397D01*
X0108490Y0130450D01*
X0108544Y0130501D01*
X0108601Y0130550D01*
X0108661Y0130594D01*
X0108723Y0130636D01*
X0108787Y0130675D01*
X0108853Y0130710D01*
X0108920Y0130741D01*
X0108990Y0130769D01*
X0109060Y0130793D01*
X0109132Y0130814D01*
X0109205Y0130830D01*
X0109278Y0130843D01*
X0109353Y0130852D01*
X0109427Y0130857D01*
X0109502Y0130858D01*
X0109576Y0130855D01*
X0109651Y0130848D01*
X0109724Y0130837D01*
X0109798Y0130823D01*
X0109870Y0130804D01*
X0109941Y0130782D01*
X0110011Y0130756D01*
X0110080Y0130726D01*
X0110146Y0130693D01*
X0110211Y0130656D01*
X0110274Y0130616D01*
X0110335Y0130572D01*
X0110393Y0130526D01*
X0110449Y0130476D01*
X0110502Y0130424D01*
X0110553Y0130369D01*
X0110600Y0130311D01*
X0110644Y0130251D01*
X0110685Y0130188D01*
X0110723Y0130124D01*
X0110757Y0130058D01*
X0110788Y0129989D01*
X0110815Y0129920D01*
X0110838Y0129849D01*
X0110857Y0129777D01*
X0110873Y0129704D01*
X0110885Y0129630D01*
X0110893Y0129556D01*
X0110897Y0129481D01*
X0110897Y0129407D01*
X0110893Y0129332D01*
X0110885Y0129258D01*
X0110873Y0129184D01*
X0110857Y0129111D01*
X0110838Y0129039D01*
X0110815Y0128968D01*
X0110788Y0128899D01*
X0110757Y0128830D01*
X0110723Y0128764D01*
X0110685Y0128700D01*
X0110644Y0128637D01*
X0110600Y0128577D01*
X0110553Y0128519D01*
X0110502Y0128464D01*
X0110449Y0128412D01*
X0110393Y0128362D01*
X0110335Y0128316D01*
X0110274Y0128272D01*
X0110211Y0128232D01*
X0110146Y0128195D01*
X0110080Y0128162D01*
X0110011Y0128132D01*
X0109941Y0128106D01*
X0109870Y0128084D01*
X0109798Y0128065D01*
X0109724Y0128051D01*
X0109651Y0128040D01*
X0109576Y0128033D01*
X0109502Y0128030D01*
X0109427Y0128031D01*
X0109353Y0128036D01*
X0109278Y0128045D01*
X0109205Y0128058D01*
X0109132Y0128074D01*
X0109060Y0128095D01*
X0108990Y0128119D01*
X0108920Y0128147D01*
X0108853Y0128178D01*
X0108787Y0128213D01*
X0108723Y0128252D01*
X0108661Y0128294D01*
X0108601Y0128338D01*
X0108544Y0128387D01*
X0108490Y0128438D01*
X0108438Y0128491D01*
X0108389Y0128548D01*
X0108343Y0128607D01*
X0108301Y0128668D01*
X0108262Y0128732D01*
X0108226Y0128797D01*
X0108193Y0128864D01*
X0108164Y0128933D01*
X0108139Y0129004D01*
X0108118Y0129075D01*
X0108100Y0129148D01*
X0108087Y0129221D01*
X0108077Y0129295D01*
X0108071Y0129369D01*
X0108069Y0129444D01*
X0057683Y0194892D02*
X0045483Y0194892D01*
X0045483Y0207092D01*
X0057683Y0207092D01*
X0057683Y0194892D01*
X0064019Y0207813D02*
X0069619Y0207813D01*
X0069619Y0213613D01*
X0069619Y0216613D01*
X0064019Y0216613D01*
X0064019Y0213613D01*
X0064019Y0210813D01*
X0064019Y0207813D01*
X0064019Y0210813D02*
X0069619Y0210813D01*
X0069719Y0207813D01*
X0069619Y0207813D01*
X0069619Y0213613D02*
X0064019Y0213613D01*
X0056932Y0221288D02*
X0056932Y0223688D01*
X0055232Y0223688D01*
X0054132Y0223688D01*
X0052532Y0223688D01*
X0052532Y0221288D01*
X0054132Y0221288D01*
X0055332Y0221288D01*
X0056932Y0221288D01*
X0055332Y0221288D02*
X0055232Y0223688D01*
X0054132Y0223688D02*
X0054132Y0221288D01*
X0053334Y0216814D02*
X0050934Y0216814D01*
X0050934Y0215114D01*
X0050934Y0214014D01*
X0050934Y0212414D01*
X0053334Y0212414D01*
X0053334Y0214014D01*
X0053334Y0215214D01*
X0053334Y0216814D01*
X0053334Y0215214D02*
X0050934Y0215114D01*
X0050934Y0214014D02*
X0053334Y0214014D01*
X0078428Y0214243D02*
X0078428Y0211443D01*
X0078428Y0208443D01*
X0084028Y0208443D01*
X0084028Y0214243D01*
X0084028Y0217243D01*
X0078428Y0217243D01*
X0078428Y0214243D01*
X0084028Y0214243D01*
X0084028Y0211443D02*
X0084128Y0208443D01*
X0084028Y0208443D01*
X0084028Y0211443D02*
X0078428Y0211443D01*
X0091263Y0210332D02*
X0096863Y0210332D01*
X0096863Y0213332D01*
X0096863Y0216132D01*
X0096863Y0219132D01*
X0091263Y0219132D01*
X0091263Y0213332D01*
X0091263Y0210332D01*
X0091263Y0213332D02*
X0096863Y0213332D01*
X0096863Y0216132D02*
X0091263Y0216132D01*
X0091163Y0219132D01*
X0091263Y0219132D01*
X0025879Y0205628D02*
X0025879Y0202628D01*
X0025879Y0199828D01*
X0025879Y0196828D01*
X0020279Y0196828D01*
X0020279Y0199828D01*
X0020279Y0205628D01*
X0025879Y0205628D01*
X0025879Y0202628D02*
X0020279Y0202628D01*
X0020179Y0205628D01*
X0020279Y0205628D01*
X0020279Y0199828D02*
X0025879Y0199828D01*
D13*
X0025429Y0200822D02*
X0020725Y0200822D01*
X0022293Y0199254D01*
X0020725Y0197686D01*
X0025429Y0197686D01*
X0025429Y0196284D02*
X0025429Y0193148D01*
X0025429Y0193866D02*
X0024645Y0193082D01*
X0021509Y0193082D01*
X0020725Y0193866D01*
X0020725Y0195434D01*
X0021509Y0196218D01*
X0024645Y0196218D01*
X0025429Y0195434D01*
X0025429Y0193866D01*
X0025429Y0194716D02*
X0020725Y0194716D01*
X0022293Y0193148D01*
X0020725Y0191646D02*
X0020725Y0190078D01*
X0020725Y0190862D02*
X0025429Y0190862D01*
X0025429Y0191614D02*
X0025429Y0188478D01*
X0020725Y0188478D01*
X0025429Y0190078D02*
X0025429Y0191646D01*
X0023861Y0194650D02*
X0025429Y0196218D01*
X0025429Y0202290D02*
X0022293Y0205426D01*
X0021509Y0205426D01*
X0020725Y0204642D01*
X0020725Y0203074D01*
X0021509Y0202290D01*
X0025429Y0202290D02*
X0025429Y0205426D01*
X0025429Y0206894D02*
X0025429Y0210030D01*
X0025429Y0211498D02*
X0020725Y0211498D01*
X0020725Y0213850D01*
X0021509Y0214634D01*
X0023077Y0214634D01*
X0023861Y0213850D01*
X0023861Y0211498D01*
X0025429Y0216102D02*
X0020725Y0216102D01*
X0025429Y0219238D01*
X0020725Y0219238D01*
X0022293Y0220706D02*
X0020725Y0222274D01*
X0025429Y0222274D01*
X0025429Y0220706D02*
X0025429Y0223842D01*
X0025429Y0225310D02*
X0020725Y0225310D01*
X0020725Y0227662D01*
X0021509Y0228446D01*
X0023077Y0228446D01*
X0023861Y0227662D01*
X0023861Y0225310D01*
X0023861Y0226878D02*
X0025429Y0228446D01*
X0024645Y0229914D02*
X0025429Y0230698D01*
X0025429Y0232266D01*
X0024645Y0233050D01*
X0023077Y0233050D01*
X0022293Y0232266D01*
X0022293Y0231482D01*
X0023077Y0229914D01*
X0020725Y0229914D01*
X0020725Y0233050D01*
X0020725Y0234518D02*
X0022293Y0236086D01*
X0020725Y0237654D01*
X0025429Y0237654D01*
X0024645Y0239122D02*
X0021509Y0239122D01*
X0020725Y0239906D01*
X0020725Y0241474D01*
X0021509Y0242258D01*
X0021509Y0243725D02*
X0020725Y0244509D01*
X0020725Y0246077D01*
X0021509Y0246861D01*
X0024645Y0243725D01*
X0025429Y0244509D01*
X0025429Y0246077D01*
X0024645Y0246861D01*
X0021509Y0246861D01*
X0020725Y0248329D02*
X0020725Y0250681D01*
X0021509Y0251465D01*
X0024645Y0251465D01*
X0025429Y0250681D01*
X0025429Y0248329D01*
X0020725Y0248329D01*
X0021509Y0243725D02*
X0024645Y0243725D01*
X0024645Y0242258D02*
X0025429Y0241474D01*
X0025429Y0239906D01*
X0024645Y0239122D01*
X0025429Y0234518D02*
X0020725Y0234518D01*
X0036889Y0212795D02*
X0036889Y0208875D01*
X0037673Y0208091D01*
X0039241Y0208091D01*
X0040025Y0208875D01*
X0040025Y0212795D01*
X0041493Y0211227D02*
X0043061Y0212795D01*
X0043061Y0208091D01*
X0041493Y0208091D02*
X0044629Y0208091D01*
X0049780Y0208820D02*
X0049780Y0206468D01*
X0054484Y0206468D01*
X0054484Y0206600D02*
X0052916Y0205032D01*
X0052916Y0205816D02*
X0052916Y0203464D01*
X0054484Y0203464D02*
X0049780Y0203464D01*
X0049780Y0205816D01*
X0050564Y0206600D01*
X0052132Y0206600D01*
X0052916Y0205816D01*
X0052916Y0206468D02*
X0052916Y0208820D01*
X0052132Y0209604D01*
X0050564Y0209604D01*
X0049780Y0208820D01*
X0049780Y0208852D02*
X0050564Y0208068D01*
X0051348Y0208068D01*
X0052132Y0208852D01*
X0052132Y0211204D01*
X0053700Y0211204D02*
X0050564Y0211204D01*
X0049780Y0210420D01*
X0049780Y0208852D01*
X0050564Y0211072D02*
X0053700Y0211072D01*
X0054484Y0211856D01*
X0054484Y0213424D01*
X0053700Y0214208D01*
X0054484Y0215676D02*
X0052916Y0217244D01*
X0054484Y0218812D01*
X0049780Y0218812D01*
X0049754Y0220138D02*
X0049754Y0224842D01*
X0048186Y0223274D01*
X0048154Y0221706D02*
X0049722Y0220138D01*
X0050564Y0220280D02*
X0049780Y0221064D01*
X0049780Y0222632D01*
X0050564Y0223416D01*
X0053700Y0220280D01*
X0054484Y0221064D01*
X0054484Y0222632D01*
X0053700Y0223416D01*
X0050564Y0223416D01*
X0051190Y0224058D02*
X0051190Y0220922D01*
X0051974Y0220138D01*
X0053542Y0220138D01*
X0054326Y0220922D01*
X0053700Y0220280D02*
X0050564Y0220280D01*
X0051322Y0220138D02*
X0048186Y0220138D01*
X0046718Y0220138D02*
X0045150Y0221706D01*
X0045934Y0221706D02*
X0043582Y0221706D01*
X0043582Y0220138D02*
X0043582Y0224842D01*
X0045934Y0224842D01*
X0046718Y0224058D01*
X0046718Y0222490D01*
X0045934Y0221706D01*
X0046586Y0221706D02*
X0048938Y0221706D01*
X0049722Y0222490D01*
X0049722Y0224058D01*
X0048938Y0224842D01*
X0046586Y0224842D01*
X0046586Y0220138D01*
X0045118Y0220922D02*
X0044334Y0220138D01*
X0042766Y0220138D01*
X0041982Y0220922D01*
X0041982Y0224058D01*
X0042766Y0224842D01*
X0044334Y0224842D01*
X0045118Y0224058D01*
X0049780Y0227236D02*
X0052132Y0224884D01*
X0052132Y0228020D01*
X0053700Y0229488D02*
X0050564Y0232624D01*
X0053700Y0232624D01*
X0054484Y0231840D01*
X0054484Y0230272D01*
X0053700Y0229488D01*
X0050564Y0229488D01*
X0049780Y0230272D01*
X0049780Y0231840D01*
X0050564Y0232624D01*
X0050564Y0234092D02*
X0049780Y0234876D01*
X0049780Y0236444D01*
X0050564Y0237228D01*
X0051348Y0237228D01*
X0054484Y0234092D01*
X0054484Y0237228D01*
X0054484Y0238696D02*
X0054484Y0241832D01*
X0054484Y0243299D02*
X0053700Y0243299D01*
X0050564Y0246436D01*
X0049780Y0246436D01*
X0049780Y0243299D01*
X0049780Y0240264D02*
X0054484Y0240264D01*
X0051348Y0238696D02*
X0049780Y0240264D01*
X0050564Y0247903D02*
X0051348Y0247903D01*
X0052132Y0248687D01*
X0052132Y0250255D01*
X0052916Y0251039D01*
X0053700Y0251039D01*
X0054484Y0250255D01*
X0054484Y0248687D01*
X0053700Y0247903D01*
X0052916Y0247903D01*
X0052132Y0248687D01*
X0052132Y0250255D02*
X0051348Y0251039D01*
X0050564Y0251039D01*
X0049780Y0250255D01*
X0049780Y0248687D01*
X0050564Y0247903D01*
X0049780Y0252507D02*
X0054484Y0252507D01*
X0052916Y0252507D02*
X0049780Y0255643D01*
X0049780Y0257111D02*
X0049780Y0260247D01*
X0049780Y0261715D02*
X0054484Y0261715D01*
X0052916Y0261715D02*
X0049780Y0264851D01*
X0049780Y0266319D02*
X0054484Y0266319D01*
X0054484Y0269455D01*
X0054484Y0270923D02*
X0054484Y0273275D01*
X0053700Y0274059D01*
X0050564Y0274059D01*
X0049780Y0273275D01*
X0049780Y0270923D01*
X0054484Y0270923D01*
X0052132Y0267887D02*
X0052132Y0266319D01*
X0049780Y0266319D02*
X0049780Y0269455D01*
X0054484Y0264851D02*
X0052132Y0262499D01*
X0052132Y0258679D02*
X0052132Y0257111D01*
X0054484Y0257111D02*
X0049780Y0257111D01*
X0052132Y0253291D02*
X0054484Y0255643D01*
X0054484Y0227236D02*
X0049780Y0227236D01*
X0051974Y0224842D02*
X0051190Y0224058D01*
X0051974Y0224842D02*
X0053542Y0224842D01*
X0054326Y0224058D01*
X0053574Y0224842D02*
X0055142Y0224842D01*
X0055926Y0224058D01*
X0052790Y0220922D01*
X0053574Y0220138D01*
X0055142Y0220138D01*
X0055926Y0220922D01*
X0055926Y0224058D01*
X0055794Y0224842D02*
X0055794Y0220138D01*
X0057362Y0221706D01*
X0058930Y0220138D01*
X0058930Y0224842D01*
X0060398Y0224058D02*
X0060398Y0220922D01*
X0063534Y0224058D01*
X0063534Y0220922D01*
X0062750Y0220138D01*
X0061182Y0220138D01*
X0060398Y0220922D01*
X0060398Y0224058D02*
X0061182Y0224842D01*
X0062750Y0224842D01*
X0063534Y0224058D01*
X0064469Y0224963D02*
X0064469Y0221827D01*
X0064469Y0222579D02*
X0064469Y0221011D01*
X0065253Y0220227D01*
X0064469Y0220359D02*
X0069173Y0220359D01*
X0067605Y0218791D01*
X0069173Y0217223D01*
X0064469Y0217223D01*
X0064469Y0215755D02*
X0069173Y0215755D01*
X0069173Y0216407D02*
X0069173Y0217975D01*
X0068389Y0218759D01*
X0068389Y0220227D02*
X0069173Y0221011D01*
X0069173Y0222579D01*
X0068389Y0223363D01*
X0065253Y0223363D01*
X0064469Y0222579D01*
X0065002Y0222490D02*
X0068138Y0222490D01*
X0069606Y0220922D02*
X0072742Y0224058D01*
X0072742Y0220922D01*
X0071958Y0220138D01*
X0070390Y0220138D01*
X0069606Y0220922D01*
X0069606Y0224058D01*
X0070390Y0224842D01*
X0071958Y0224842D01*
X0072742Y0224058D01*
X0074210Y0224058D02*
X0074994Y0224842D01*
X0076562Y0224842D01*
X0077346Y0224058D01*
X0077346Y0223274D01*
X0074210Y0220138D01*
X0077346Y0220138D01*
X0078814Y0220138D02*
X0081950Y0220138D01*
X0082014Y0219421D02*
X0083582Y0217853D01*
X0078878Y0217853D01*
X0078878Y0218605D02*
X0079662Y0219389D01*
X0080382Y0220138D02*
X0080382Y0224842D01*
X0078814Y0223274D01*
X0078878Y0223209D02*
X0078878Y0221641D01*
X0079662Y0220857D01*
X0078878Y0220989D02*
X0083582Y0220989D01*
X0082014Y0219421D01*
X0082798Y0219389D02*
X0083582Y0218605D01*
X0083582Y0217037D01*
X0082798Y0216253D01*
X0082014Y0216253D01*
X0081230Y0217037D01*
X0080446Y0216253D01*
X0079662Y0216253D01*
X0078878Y0217037D01*
X0078878Y0218605D01*
X0078878Y0216385D02*
X0083582Y0216385D01*
X0081230Y0217037D02*
X0081230Y0217821D01*
X0080446Y0216385D02*
X0083582Y0213249D01*
X0082798Y0211781D02*
X0083582Y0210997D01*
X0083582Y0209429D01*
X0082798Y0208645D01*
X0082014Y0208645D01*
X0078878Y0211781D01*
X0078878Y0208645D01*
X0078878Y0207177D02*
X0078878Y0204041D01*
X0078878Y0202573D02*
X0082014Y0199437D01*
X0082798Y0199437D01*
X0083582Y0200221D01*
X0083582Y0201789D01*
X0082798Y0202573D01*
X0083582Y0205609D02*
X0078878Y0205609D01*
X0078878Y0202573D02*
X0078878Y0199437D01*
X0078878Y0197969D02*
X0078878Y0195617D01*
X0079662Y0194833D01*
X0080446Y0194833D01*
X0081230Y0195617D01*
X0081230Y0197969D01*
X0078878Y0197969D02*
X0083582Y0197969D01*
X0083582Y0195617D01*
X0082798Y0194833D01*
X0082014Y0194833D01*
X0081230Y0195617D01*
X0079662Y0193365D02*
X0078878Y0192581D01*
X0078878Y0191797D01*
X0079662Y0191013D01*
X0083582Y0191013D01*
X0083582Y0191797D02*
X0083582Y0190229D01*
X0082798Y0188761D02*
X0083582Y0187977D01*
X0083582Y0186409D01*
X0082798Y0185625D01*
X0082014Y0185625D01*
X0078878Y0188761D01*
X0078878Y0185625D01*
X0078878Y0184157D02*
X0082014Y0181021D01*
X0082798Y0181021D01*
X0083582Y0181805D01*
X0083582Y0183373D01*
X0082798Y0184157D01*
X0078878Y0184157D02*
X0078878Y0181021D01*
X0079662Y0179553D02*
X0078878Y0178769D01*
X0078878Y0177201D01*
X0079662Y0176417D01*
X0080446Y0176417D01*
X0081230Y0177201D01*
X0081230Y0179553D01*
X0079662Y0179553D01*
X0081230Y0179553D02*
X0082798Y0177985D01*
X0083582Y0176417D01*
X0083582Y0174949D02*
X0082014Y0173381D01*
X0083582Y0171813D01*
X0078878Y0171813D01*
X0079662Y0170345D02*
X0078878Y0169561D01*
X0078878Y0167993D01*
X0079662Y0167209D01*
X0081230Y0167209D01*
X0081230Y0168777D01*
X0082798Y0167209D02*
X0083582Y0167993D01*
X0083582Y0169561D01*
X0082798Y0170345D01*
X0079662Y0170345D01*
X0078878Y0174949D02*
X0083582Y0174949D01*
X0081230Y0165741D02*
X0081230Y0162605D01*
X0083582Y0161138D02*
X0083582Y0158002D01*
X0083582Y0159570D02*
X0078878Y0159570D01*
X0069173Y0158940D02*
X0064469Y0158940D01*
X0066821Y0161976D02*
X0066821Y0165112D01*
X0066821Y0166579D02*
X0066821Y0168148D01*
X0066821Y0166579D02*
X0065253Y0166579D01*
X0064469Y0167363D01*
X0064469Y0168932D01*
X0065253Y0169716D01*
X0068389Y0169716D01*
X0069173Y0168932D01*
X0069173Y0167363D01*
X0068389Y0166579D01*
X0069173Y0171183D02*
X0064469Y0171183D01*
X0064469Y0174319D02*
X0069173Y0174319D01*
X0067605Y0172751D01*
X0069173Y0171183D01*
X0069173Y0175787D02*
X0068389Y0177355D01*
X0066821Y0178923D01*
X0066821Y0176571D01*
X0066037Y0175787D01*
X0065253Y0175787D01*
X0064469Y0176571D01*
X0064469Y0178139D01*
X0065253Y0178923D01*
X0066821Y0178923D01*
X0067605Y0180391D02*
X0068389Y0180391D01*
X0069173Y0181175D01*
X0069173Y0182743D01*
X0068389Y0183527D01*
X0068389Y0184995D02*
X0069173Y0185779D01*
X0069173Y0187347D01*
X0068389Y0188131D01*
X0069173Y0189599D02*
X0069173Y0191167D01*
X0069173Y0190383D02*
X0065253Y0190383D01*
X0064469Y0191167D01*
X0064469Y0191951D01*
X0065253Y0192735D01*
X0065253Y0194203D02*
X0064469Y0194987D01*
X0064469Y0197339D01*
X0069173Y0197339D01*
X0069173Y0194987D01*
X0068389Y0194203D01*
X0067605Y0194203D01*
X0066821Y0194987D01*
X0066821Y0197339D01*
X0067605Y0198807D02*
X0068389Y0198807D01*
X0069173Y0199591D01*
X0069173Y0201159D01*
X0068389Y0201943D01*
X0069173Y0204979D02*
X0064469Y0204979D01*
X0064469Y0206547D02*
X0064469Y0203411D01*
X0064469Y0201943D02*
X0067605Y0198807D01*
X0066821Y0194987D02*
X0066037Y0194203D01*
X0065253Y0194203D01*
X0064469Y0198807D02*
X0064469Y0201943D01*
X0067605Y0206547D02*
X0069173Y0204979D01*
X0068389Y0208015D02*
X0069173Y0208799D01*
X0069173Y0210367D01*
X0068389Y0211151D01*
X0069173Y0212619D02*
X0066037Y0215755D01*
X0066821Y0214971D02*
X0064469Y0212619D01*
X0064469Y0211151D02*
X0067605Y0208015D01*
X0068389Y0208015D01*
X0064469Y0208015D02*
X0064469Y0211151D01*
X0064469Y0215623D02*
X0064469Y0218759D01*
X0067605Y0215623D01*
X0068389Y0215623D01*
X0069173Y0216407D01*
X0067354Y0220138D02*
X0067354Y0224842D01*
X0065002Y0222490D01*
X0064469Y0224963D02*
X0069173Y0224963D01*
X0078878Y0225593D02*
X0078878Y0222457D01*
X0078878Y0223209D02*
X0079662Y0223993D01*
X0082798Y0223993D01*
X0083582Y0223209D01*
X0083582Y0221641D01*
X0082798Y0220857D01*
X0083418Y0220138D02*
X0083418Y0224842D01*
X0084986Y0223274D01*
X0086554Y0224842D01*
X0086554Y0220138D01*
X0088022Y0220922D02*
X0091158Y0224058D01*
X0091158Y0220922D01*
X0090374Y0220138D01*
X0088806Y0220138D01*
X0088022Y0220922D01*
X0088022Y0224058D01*
X0088806Y0224842D01*
X0090374Y0224842D01*
X0091158Y0224058D01*
X0092625Y0224058D02*
X0093409Y0224842D01*
X0094977Y0224842D01*
X0095761Y0224058D01*
X0092625Y0220922D01*
X0093409Y0220138D01*
X0094977Y0220138D01*
X0095761Y0220922D01*
X0095761Y0224058D01*
X0096413Y0223534D02*
X0096413Y0220398D01*
X0097229Y0220138D02*
X0097229Y0224842D01*
X0100365Y0224842D01*
X0101833Y0224842D02*
X0101833Y0220138D01*
X0101833Y0221706D02*
X0104969Y0224842D01*
X0106437Y0224842D02*
X0106437Y0220138D01*
X0109573Y0220138D01*
X0111041Y0220138D02*
X0113393Y0220138D01*
X0114177Y0220922D01*
X0114177Y0224058D01*
X0113393Y0224842D01*
X0111041Y0224842D01*
X0111041Y0220138D01*
X0108005Y0222490D02*
X0106437Y0222490D01*
X0106437Y0224842D02*
X0109573Y0224842D01*
X0104969Y0220138D02*
X0102617Y0222490D01*
X0098797Y0222490D02*
X0097229Y0222490D01*
X0096413Y0221966D02*
X0091709Y0221966D01*
X0093277Y0220398D01*
X0092625Y0220922D02*
X0092625Y0224058D01*
X0092493Y0225002D02*
X0091709Y0225786D01*
X0091709Y0227354D01*
X0092493Y0228138D01*
X0093277Y0228138D01*
X0096413Y0225002D01*
X0096413Y0228138D01*
X0096413Y0229606D02*
X0096413Y0231958D01*
X0095629Y0232742D01*
X0094845Y0232742D01*
X0094061Y0231958D01*
X0094061Y0229606D01*
X0094061Y0231958D02*
X0093277Y0232742D01*
X0092493Y0232742D01*
X0091709Y0231958D01*
X0091709Y0229606D01*
X0096413Y0229606D01*
X0095629Y0234210D02*
X0096413Y0234994D01*
X0096413Y0235778D01*
X0095629Y0236562D01*
X0091709Y0236562D01*
X0091709Y0235778D02*
X0091709Y0237346D01*
X0093277Y0238814D02*
X0091709Y0240382D01*
X0096413Y0240382D01*
X0096413Y0238814D02*
X0096413Y0241950D01*
X0095629Y0243418D02*
X0092493Y0246554D01*
X0095629Y0246554D01*
X0096413Y0245770D01*
X0096413Y0244202D01*
X0095629Y0243418D01*
X0092493Y0243418D01*
X0091709Y0244202D01*
X0091709Y0245770D01*
X0092493Y0246554D01*
X0094061Y0248022D02*
X0092493Y0249590D01*
X0091709Y0251158D01*
X0091709Y0252625D02*
X0096413Y0252625D01*
X0094845Y0252625D02*
X0091709Y0255761D01*
X0092493Y0257229D02*
X0095629Y0257229D01*
X0096413Y0258013D01*
X0096413Y0259581D01*
X0095629Y0260365D01*
X0094061Y0260365D01*
X0094061Y0258797D01*
X0092493Y0257229D02*
X0091709Y0258013D01*
X0091709Y0259581D01*
X0092493Y0260365D01*
X0094061Y0261833D02*
X0094061Y0264969D01*
X0091709Y0266437D02*
X0091709Y0269573D01*
X0091709Y0268005D02*
X0096413Y0268005D01*
X0096413Y0255761D02*
X0094061Y0253409D01*
X0094845Y0251158D02*
X0094061Y0250374D01*
X0094061Y0248022D01*
X0095629Y0248022D01*
X0096413Y0248806D01*
X0096413Y0250374D01*
X0095629Y0251158D01*
X0094845Y0251158D01*
X0083582Y0225593D02*
X0078878Y0225593D01*
X0081230Y0215601D02*
X0078878Y0213249D01*
X0082014Y0207177D02*
X0083582Y0205609D01*
X0091709Y0205934D02*
X0091709Y0204366D01*
X0092493Y0203582D01*
X0095629Y0203582D01*
X0096413Y0204366D01*
X0096413Y0205934D01*
X0095629Y0206718D01*
X0096413Y0206586D02*
X0091709Y0206586D01*
X0093277Y0208154D01*
X0091709Y0209722D01*
X0096413Y0209722D01*
X0096413Y0209754D02*
X0091709Y0209754D01*
X0093277Y0208186D01*
X0092493Y0206718D02*
X0091709Y0205934D01*
X0091709Y0211190D02*
X0096413Y0211190D01*
X0096413Y0211322D02*
X0096413Y0208186D01*
X0096413Y0205118D02*
X0096413Y0201982D01*
X0091709Y0201982D01*
X0094845Y0211190D02*
X0091709Y0214326D01*
X0092493Y0215794D02*
X0091709Y0216578D01*
X0091709Y0218146D01*
X0092493Y0218930D01*
X0093277Y0218930D01*
X0096413Y0215794D01*
X0096413Y0218930D01*
X0096413Y0214326D02*
X0094061Y0211974D01*
X0068389Y0184995D02*
X0067605Y0184995D01*
X0064469Y0188131D01*
X0064469Y0184995D01*
X0064469Y0183527D02*
X0067605Y0180391D01*
X0064469Y0180391D02*
X0064469Y0183527D01*
X0053700Y0201864D02*
X0050564Y0201864D01*
X0049780Y0202648D01*
X0049780Y0204216D01*
X0050564Y0205000D01*
X0052916Y0208036D02*
X0054484Y0209604D01*
X0054484Y0208852D02*
X0054484Y0210420D01*
X0053700Y0211204D01*
X0054484Y0208852D02*
X0053700Y0208068D01*
X0053700Y0205000D02*
X0054484Y0204216D01*
X0054484Y0202648D01*
X0053700Y0201864D01*
X0050564Y0211072D02*
X0049780Y0211856D01*
X0049780Y0213424D01*
X0050564Y0214208D01*
X0049780Y0215676D02*
X0054484Y0215676D01*
X0052790Y0220922D02*
X0052790Y0224058D01*
X0053574Y0224842D01*
X0025429Y0208462D02*
X0020725Y0208462D01*
X0022293Y0206894D01*
X0069173Y0160508D02*
X0069173Y0157372D01*
X0126759Y0157981D02*
X0129661Y0157981D01*
X0129661Y0159916D01*
X0129177Y0160928D02*
X0129661Y0161412D01*
X0129661Y0162379D01*
X0129177Y0162863D01*
X0128210Y0162863D01*
X0127726Y0162379D01*
X0127726Y0161895D01*
X0128210Y0160928D01*
X0126759Y0160928D01*
X0126759Y0162863D01*
X0126759Y0159916D02*
X0126759Y0157981D01*
X0127242Y0156970D02*
X0126759Y0156486D01*
X0126759Y0155518D01*
X0127242Y0155035D01*
X0127242Y0154023D02*
X0127726Y0154023D01*
X0128210Y0153539D01*
X0128694Y0154023D01*
X0129177Y0154023D01*
X0129661Y0153539D01*
X0129661Y0152572D01*
X0129177Y0152088D01*
X0129661Y0151077D02*
X0127726Y0151077D01*
X0126759Y0150109D01*
X0127726Y0149142D01*
X0129661Y0149142D01*
X0129177Y0148130D02*
X0128210Y0148130D01*
X0128210Y0147163D01*
X0129177Y0148130D02*
X0129661Y0147646D01*
X0129661Y0146679D01*
X0129177Y0146195D01*
X0127242Y0146195D01*
X0126759Y0146679D01*
X0126759Y0147646D01*
X0127242Y0148130D01*
X0128210Y0149142D02*
X0128210Y0151077D01*
X0127242Y0152088D02*
X0126759Y0152572D01*
X0126759Y0153539D01*
X0127242Y0154023D01*
X0128210Y0153539D02*
X0128210Y0153056D01*
X0129661Y0155035D02*
X0127726Y0156970D01*
X0127242Y0156970D01*
X0128210Y0157981D02*
X0128210Y0158949D01*
X0129661Y0156970D02*
X0129661Y0155035D01*
X0129661Y0145184D02*
X0129661Y0143249D01*
X0126759Y0143249D01*
X0126759Y0145184D01*
X0128210Y0144216D02*
X0128210Y0143249D01*
X0126759Y0142237D02*
X0129661Y0142237D01*
X0129661Y0140302D02*
X0126759Y0140302D01*
X0127726Y0141270D01*
X0126759Y0142237D01*
X0126759Y0139291D02*
X0129661Y0137356D01*
X0129661Y0139291D02*
X0126759Y0137356D01*
X0126759Y0136344D02*
X0126759Y0134409D01*
X0126759Y0135377D02*
X0129661Y0135377D01*
X0129661Y0133398D02*
X0127726Y0133398D01*
X0126759Y0132430D01*
X0127726Y0131463D01*
X0129661Y0131463D01*
X0128210Y0131463D02*
X0128210Y0133398D01*
D14*
X0128630Y0117882D02*
X0116031Y0117882D01*
X0116031Y0092685D01*
X0128630Y0092685D01*
X0128630Y0117882D01*
X0153000Y0105638D02*
X0153000Y0093039D01*
X0159299Y0093039D01*
X0159299Y0105638D01*
X0153000Y0105638D01*
X0126051Y0085677D02*
X0111051Y0085677D01*
X0111051Y0045677D01*
X0126051Y0045677D01*
X0126051Y0085677D01*
X0115015Y0065677D02*
X0115017Y0065796D01*
X0115023Y0065914D01*
X0115033Y0066033D01*
X0115047Y0066151D01*
X0115065Y0066268D01*
X0115087Y0066385D01*
X0115112Y0066501D01*
X0115142Y0066616D01*
X0115175Y0066730D01*
X0115213Y0066843D01*
X0115254Y0066954D01*
X0115299Y0067064D01*
X0115347Y0067173D01*
X0115399Y0067280D01*
X0115455Y0067385D01*
X0115514Y0067488D01*
X0115576Y0067589D01*
X0115642Y0067688D01*
X0115711Y0067784D01*
X0115784Y0067878D01*
X0115859Y0067970D01*
X0115938Y0068059D01*
X0116019Y0068146D01*
X0116104Y0068229D01*
X0116191Y0068310D01*
X0116281Y0068388D01*
X0116373Y0068463D01*
X0116468Y0068534D01*
X0116565Y0068603D01*
X0116664Y0068668D01*
X0116766Y0068729D01*
X0116869Y0068788D01*
X0116975Y0068842D01*
X0117082Y0068893D01*
X0117191Y0068941D01*
X0117301Y0068985D01*
X0117413Y0069025D01*
X0117526Y0069061D01*
X0117641Y0069094D01*
X0117756Y0069122D01*
X0117872Y0069147D01*
X0117989Y0069168D01*
X0118107Y0069185D01*
X0118225Y0069198D01*
X0118343Y0069207D01*
X0118462Y0069212D01*
X0118581Y0069213D01*
X0118699Y0069210D01*
X0118818Y0069203D01*
X0118936Y0069192D01*
X0119054Y0069177D01*
X0119172Y0069158D01*
X0119288Y0069135D01*
X0119404Y0069109D01*
X0119519Y0069078D01*
X0119632Y0069044D01*
X0119745Y0069005D01*
X0119856Y0068963D01*
X0119966Y0068918D01*
X0120074Y0068868D01*
X0120180Y0068815D01*
X0120285Y0068759D01*
X0120387Y0068699D01*
X0120488Y0068636D01*
X0120586Y0068569D01*
X0120682Y0068499D01*
X0120776Y0068426D01*
X0120867Y0068349D01*
X0120955Y0068270D01*
X0121041Y0068188D01*
X0121124Y0068103D01*
X0121204Y0068015D01*
X0121281Y0067925D01*
X0121355Y0067832D01*
X0121426Y0067736D01*
X0121493Y0067638D01*
X0121557Y0067538D01*
X0121618Y0067436D01*
X0121676Y0067332D01*
X0121729Y0067226D01*
X0121780Y0067119D01*
X0121826Y0067010D01*
X0121869Y0066899D01*
X0121908Y0066787D01*
X0121944Y0066673D01*
X0121975Y0066559D01*
X0122003Y0066443D01*
X0122027Y0066327D01*
X0122047Y0066210D01*
X0122063Y0066092D01*
X0122075Y0065974D01*
X0122083Y0065855D01*
X0122087Y0065736D01*
X0122087Y0065618D01*
X0122083Y0065499D01*
X0122075Y0065380D01*
X0122063Y0065262D01*
X0122047Y0065144D01*
X0122027Y0065027D01*
X0122003Y0064911D01*
X0121975Y0064795D01*
X0121944Y0064681D01*
X0121908Y0064567D01*
X0121869Y0064455D01*
X0121826Y0064344D01*
X0121780Y0064235D01*
X0121729Y0064128D01*
X0121676Y0064022D01*
X0121618Y0063918D01*
X0121557Y0063816D01*
X0121493Y0063716D01*
X0121426Y0063618D01*
X0121355Y0063522D01*
X0121281Y0063429D01*
X0121204Y0063339D01*
X0121124Y0063251D01*
X0121041Y0063166D01*
X0120955Y0063084D01*
X0120867Y0063005D01*
X0120776Y0062928D01*
X0120682Y0062855D01*
X0120586Y0062785D01*
X0120488Y0062718D01*
X0120387Y0062655D01*
X0120285Y0062595D01*
X0120180Y0062539D01*
X0120074Y0062486D01*
X0119966Y0062436D01*
X0119856Y0062391D01*
X0119745Y0062349D01*
X0119632Y0062310D01*
X0119519Y0062276D01*
X0119404Y0062245D01*
X0119288Y0062219D01*
X0119172Y0062196D01*
X0119054Y0062177D01*
X0118936Y0062162D01*
X0118818Y0062151D01*
X0118699Y0062144D01*
X0118581Y0062141D01*
X0118462Y0062142D01*
X0118343Y0062147D01*
X0118225Y0062156D01*
X0118107Y0062169D01*
X0117989Y0062186D01*
X0117872Y0062207D01*
X0117756Y0062232D01*
X0117641Y0062260D01*
X0117526Y0062293D01*
X0117413Y0062329D01*
X0117301Y0062369D01*
X0117191Y0062413D01*
X0117082Y0062461D01*
X0116975Y0062512D01*
X0116869Y0062566D01*
X0116766Y0062625D01*
X0116664Y0062686D01*
X0116565Y0062751D01*
X0116468Y0062820D01*
X0116373Y0062891D01*
X0116281Y0062966D01*
X0116191Y0063044D01*
X0116104Y0063125D01*
X0116019Y0063208D01*
X0115938Y0063295D01*
X0115859Y0063384D01*
X0115784Y0063476D01*
X0115711Y0063570D01*
X0115642Y0063666D01*
X0115576Y0063765D01*
X0115514Y0063866D01*
X0115455Y0063969D01*
X0115399Y0064074D01*
X0115347Y0064181D01*
X0115299Y0064290D01*
X0115254Y0064400D01*
X0115213Y0064511D01*
X0115175Y0064624D01*
X0115142Y0064738D01*
X0115112Y0064853D01*
X0115087Y0064969D01*
X0115065Y0065086D01*
X0115047Y0065203D01*
X0115033Y0065321D01*
X0115023Y0065440D01*
X0115017Y0065558D01*
X0115015Y0065677D01*
X0098098Y0046465D02*
X0083098Y0046465D01*
X0083098Y0086465D01*
X0098098Y0086465D01*
X0098098Y0046465D01*
X0087062Y0066465D02*
X0087064Y0066584D01*
X0087070Y0066702D01*
X0087080Y0066821D01*
X0087094Y0066939D01*
X0087112Y0067056D01*
X0087134Y0067173D01*
X0087159Y0067289D01*
X0087189Y0067404D01*
X0087222Y0067518D01*
X0087260Y0067631D01*
X0087301Y0067742D01*
X0087346Y0067852D01*
X0087394Y0067961D01*
X0087446Y0068068D01*
X0087502Y0068173D01*
X0087561Y0068276D01*
X0087623Y0068377D01*
X0087689Y0068476D01*
X0087758Y0068572D01*
X0087831Y0068666D01*
X0087906Y0068758D01*
X0087985Y0068847D01*
X0088066Y0068934D01*
X0088151Y0069017D01*
X0088238Y0069098D01*
X0088328Y0069176D01*
X0088420Y0069251D01*
X0088515Y0069322D01*
X0088612Y0069391D01*
X0088711Y0069456D01*
X0088813Y0069517D01*
X0088916Y0069576D01*
X0089022Y0069630D01*
X0089129Y0069681D01*
X0089238Y0069729D01*
X0089348Y0069773D01*
X0089460Y0069813D01*
X0089573Y0069849D01*
X0089688Y0069882D01*
X0089803Y0069910D01*
X0089919Y0069935D01*
X0090036Y0069956D01*
X0090154Y0069973D01*
X0090272Y0069986D01*
X0090390Y0069995D01*
X0090509Y0070000D01*
X0090628Y0070001D01*
X0090746Y0069998D01*
X0090865Y0069991D01*
X0090983Y0069980D01*
X0091101Y0069965D01*
X0091219Y0069946D01*
X0091335Y0069923D01*
X0091451Y0069897D01*
X0091566Y0069866D01*
X0091679Y0069832D01*
X0091792Y0069793D01*
X0091903Y0069751D01*
X0092013Y0069706D01*
X0092121Y0069656D01*
X0092227Y0069603D01*
X0092332Y0069547D01*
X0092434Y0069487D01*
X0092535Y0069424D01*
X0092633Y0069357D01*
X0092729Y0069287D01*
X0092823Y0069214D01*
X0092914Y0069137D01*
X0093002Y0069058D01*
X0093088Y0068976D01*
X0093171Y0068891D01*
X0093251Y0068803D01*
X0093328Y0068713D01*
X0093402Y0068620D01*
X0093473Y0068524D01*
X0093540Y0068426D01*
X0093604Y0068326D01*
X0093665Y0068224D01*
X0093723Y0068120D01*
X0093776Y0068014D01*
X0093827Y0067907D01*
X0093873Y0067798D01*
X0093916Y0067687D01*
X0093955Y0067575D01*
X0093991Y0067461D01*
X0094022Y0067347D01*
X0094050Y0067231D01*
X0094074Y0067115D01*
X0094094Y0066998D01*
X0094110Y0066880D01*
X0094122Y0066762D01*
X0094130Y0066643D01*
X0094134Y0066524D01*
X0094134Y0066406D01*
X0094130Y0066287D01*
X0094122Y0066168D01*
X0094110Y0066050D01*
X0094094Y0065932D01*
X0094074Y0065815D01*
X0094050Y0065699D01*
X0094022Y0065583D01*
X0093991Y0065469D01*
X0093955Y0065355D01*
X0093916Y0065243D01*
X0093873Y0065132D01*
X0093827Y0065023D01*
X0093776Y0064916D01*
X0093723Y0064810D01*
X0093665Y0064706D01*
X0093604Y0064604D01*
X0093540Y0064504D01*
X0093473Y0064406D01*
X0093402Y0064310D01*
X0093328Y0064217D01*
X0093251Y0064127D01*
X0093171Y0064039D01*
X0093088Y0063954D01*
X0093002Y0063872D01*
X0092914Y0063793D01*
X0092823Y0063716D01*
X0092729Y0063643D01*
X0092633Y0063573D01*
X0092535Y0063506D01*
X0092434Y0063443D01*
X0092332Y0063383D01*
X0092227Y0063327D01*
X0092121Y0063274D01*
X0092013Y0063224D01*
X0091903Y0063179D01*
X0091792Y0063137D01*
X0091679Y0063098D01*
X0091566Y0063064D01*
X0091451Y0063033D01*
X0091335Y0063007D01*
X0091219Y0062984D01*
X0091101Y0062965D01*
X0090983Y0062950D01*
X0090865Y0062939D01*
X0090746Y0062932D01*
X0090628Y0062929D01*
X0090509Y0062930D01*
X0090390Y0062935D01*
X0090272Y0062944D01*
X0090154Y0062957D01*
X0090036Y0062974D01*
X0089919Y0062995D01*
X0089803Y0063020D01*
X0089688Y0063048D01*
X0089573Y0063081D01*
X0089460Y0063117D01*
X0089348Y0063157D01*
X0089238Y0063201D01*
X0089129Y0063249D01*
X0089022Y0063300D01*
X0088916Y0063354D01*
X0088813Y0063413D01*
X0088711Y0063474D01*
X0088612Y0063539D01*
X0088515Y0063608D01*
X0088420Y0063679D01*
X0088328Y0063754D01*
X0088238Y0063832D01*
X0088151Y0063913D01*
X0088066Y0063996D01*
X0087985Y0064083D01*
X0087906Y0064172D01*
X0087831Y0064264D01*
X0087758Y0064358D01*
X0087689Y0064454D01*
X0087623Y0064553D01*
X0087561Y0064654D01*
X0087502Y0064757D01*
X0087446Y0064862D01*
X0087394Y0064969D01*
X0087346Y0065078D01*
X0087301Y0065188D01*
X0087260Y0065299D01*
X0087222Y0065412D01*
X0087189Y0065526D01*
X0087159Y0065641D01*
X0087134Y0065757D01*
X0087112Y0065874D01*
X0087094Y0065991D01*
X0087080Y0066109D01*
X0087070Y0066228D01*
X0087064Y0066346D01*
X0087062Y0066465D01*
X0043197Y0093315D02*
X0043197Y0118118D01*
X0018394Y0118118D01*
X0018394Y0093315D01*
X0043197Y0093315D01*
X0024876Y0105717D02*
X0024878Y0105871D01*
X0024884Y0106024D01*
X0024894Y0106178D01*
X0024908Y0106331D01*
X0024926Y0106483D01*
X0024948Y0106635D01*
X0024973Y0106787D01*
X0025003Y0106938D01*
X0025037Y0107088D01*
X0025074Y0107237D01*
X0025116Y0107385D01*
X0025161Y0107531D01*
X0025210Y0107677D01*
X0025263Y0107821D01*
X0025319Y0107964D01*
X0025379Y0108106D01*
X0025443Y0108246D01*
X0025511Y0108384D01*
X0025582Y0108520D01*
X0025656Y0108654D01*
X0025734Y0108787D01*
X0025816Y0108917D01*
X0025900Y0109045D01*
X0025988Y0109171D01*
X0026080Y0109295D01*
X0026174Y0109416D01*
X0026272Y0109535D01*
X0026372Y0109651D01*
X0026476Y0109764D01*
X0026583Y0109875D01*
X0026692Y0109983D01*
X0026804Y0110088D01*
X0026919Y0110190D01*
X0027036Y0110289D01*
X0027156Y0110385D01*
X0027279Y0110478D01*
X0027403Y0110568D01*
X0027531Y0110654D01*
X0027660Y0110738D01*
X0027791Y0110817D01*
X0027925Y0110893D01*
X0028060Y0110966D01*
X0028197Y0111035D01*
X0028336Y0111101D01*
X0028477Y0111163D01*
X0028619Y0111221D01*
X0028763Y0111276D01*
X0028908Y0111327D01*
X0029054Y0111374D01*
X0029201Y0111417D01*
X0029350Y0111457D01*
X0029499Y0111492D01*
X0029650Y0111524D01*
X0029801Y0111552D01*
X0029953Y0111576D01*
X0030105Y0111596D01*
X0030258Y0111612D01*
X0030411Y0111624D01*
X0030565Y0111632D01*
X0030718Y0111636D01*
X0030872Y0111636D01*
X0031025Y0111632D01*
X0031179Y0111624D01*
X0031332Y0111612D01*
X0031485Y0111596D01*
X0031637Y0111576D01*
X0031789Y0111552D01*
X0031940Y0111524D01*
X0032091Y0111492D01*
X0032240Y0111457D01*
X0032389Y0111417D01*
X0032536Y0111374D01*
X0032682Y0111327D01*
X0032827Y0111276D01*
X0032971Y0111221D01*
X0033113Y0111163D01*
X0033254Y0111101D01*
X0033393Y0111035D01*
X0033530Y0110966D01*
X0033665Y0110893D01*
X0033799Y0110817D01*
X0033930Y0110738D01*
X0034059Y0110654D01*
X0034187Y0110568D01*
X0034311Y0110478D01*
X0034434Y0110385D01*
X0034554Y0110289D01*
X0034671Y0110190D01*
X0034786Y0110088D01*
X0034898Y0109983D01*
X0035007Y0109875D01*
X0035114Y0109764D01*
X0035218Y0109651D01*
X0035318Y0109535D01*
X0035416Y0109416D01*
X0035510Y0109295D01*
X0035602Y0109171D01*
X0035690Y0109045D01*
X0035774Y0108917D01*
X0035856Y0108787D01*
X0035934Y0108654D01*
X0036008Y0108520D01*
X0036079Y0108384D01*
X0036147Y0108246D01*
X0036211Y0108106D01*
X0036271Y0107964D01*
X0036327Y0107821D01*
X0036380Y0107677D01*
X0036429Y0107531D01*
X0036474Y0107385D01*
X0036516Y0107237D01*
X0036553Y0107088D01*
X0036587Y0106938D01*
X0036617Y0106787D01*
X0036642Y0106635D01*
X0036664Y0106483D01*
X0036682Y0106331D01*
X0036696Y0106178D01*
X0036706Y0106024D01*
X0036712Y0105871D01*
X0036714Y0105717D01*
X0036712Y0105563D01*
X0036706Y0105410D01*
X0036696Y0105256D01*
X0036682Y0105103D01*
X0036664Y0104951D01*
X0036642Y0104799D01*
X0036617Y0104647D01*
X0036587Y0104496D01*
X0036553Y0104346D01*
X0036516Y0104197D01*
X0036474Y0104049D01*
X0036429Y0103903D01*
X0036380Y0103757D01*
X0036327Y0103613D01*
X0036271Y0103470D01*
X0036211Y0103328D01*
X0036147Y0103188D01*
X0036079Y0103050D01*
X0036008Y0102914D01*
X0035934Y0102780D01*
X0035856Y0102647D01*
X0035774Y0102517D01*
X0035690Y0102389D01*
X0035602Y0102263D01*
X0035510Y0102139D01*
X0035416Y0102018D01*
X0035318Y0101899D01*
X0035218Y0101783D01*
X0035114Y0101670D01*
X0035007Y0101559D01*
X0034898Y0101451D01*
X0034786Y0101346D01*
X0034671Y0101244D01*
X0034554Y0101145D01*
X0034434Y0101049D01*
X0034311Y0100956D01*
X0034187Y0100866D01*
X0034059Y0100780D01*
X0033930Y0100696D01*
X0033799Y0100617D01*
X0033665Y0100541D01*
X0033530Y0100468D01*
X0033393Y0100399D01*
X0033254Y0100333D01*
X0033113Y0100271D01*
X0032971Y0100213D01*
X0032827Y0100158D01*
X0032682Y0100107D01*
X0032536Y0100060D01*
X0032389Y0100017D01*
X0032240Y0099977D01*
X0032091Y0099942D01*
X0031940Y0099910D01*
X0031789Y0099882D01*
X0031637Y0099858D01*
X0031485Y0099838D01*
X0031332Y0099822D01*
X0031179Y0099810D01*
X0031025Y0099802D01*
X0030872Y0099798D01*
X0030718Y0099798D01*
X0030565Y0099802D01*
X0030411Y0099810D01*
X0030258Y0099822D01*
X0030105Y0099838D01*
X0029953Y0099858D01*
X0029801Y0099882D01*
X0029650Y0099910D01*
X0029499Y0099942D01*
X0029350Y0099977D01*
X0029201Y0100017D01*
X0029054Y0100060D01*
X0028908Y0100107D01*
X0028763Y0100158D01*
X0028619Y0100213D01*
X0028477Y0100271D01*
X0028336Y0100333D01*
X0028197Y0100399D01*
X0028060Y0100468D01*
X0027925Y0100541D01*
X0027791Y0100617D01*
X0027660Y0100696D01*
X0027531Y0100780D01*
X0027403Y0100866D01*
X0027279Y0100956D01*
X0027156Y0101049D01*
X0027036Y0101145D01*
X0026919Y0101244D01*
X0026804Y0101346D01*
X0026692Y0101451D01*
X0026583Y0101559D01*
X0026476Y0101670D01*
X0026372Y0101783D01*
X0026272Y0101899D01*
X0026174Y0102018D01*
X0026080Y0102139D01*
X0025988Y0102263D01*
X0025900Y0102389D01*
X0025816Y0102517D01*
X0025734Y0102647D01*
X0025656Y0102780D01*
X0025582Y0102914D01*
X0025511Y0103050D01*
X0025443Y0103188D01*
X0025379Y0103328D01*
X0025319Y0103470D01*
X0025263Y0103613D01*
X0025210Y0103757D01*
X0025161Y0103903D01*
X0025116Y0104049D01*
X0025074Y0104197D01*
X0025037Y0104346D01*
X0025003Y0104496D01*
X0024973Y0104647D01*
X0024948Y0104799D01*
X0024926Y0104951D01*
X0024908Y0105103D01*
X0024894Y0105256D01*
X0024884Y0105410D01*
X0024878Y0105563D01*
X0024876Y0105717D01*
X0018394Y0142134D02*
X0018394Y0166937D01*
X0043197Y0166937D01*
X0043197Y0142134D01*
X0018394Y0142134D01*
X0024876Y0154535D02*
X0024878Y0154689D01*
X0024884Y0154842D01*
X0024894Y0154996D01*
X0024908Y0155149D01*
X0024926Y0155301D01*
X0024948Y0155453D01*
X0024973Y0155605D01*
X0025003Y0155756D01*
X0025037Y0155906D01*
X0025074Y0156055D01*
X0025116Y0156203D01*
X0025161Y0156349D01*
X0025210Y0156495D01*
X0025263Y0156639D01*
X0025319Y0156782D01*
X0025379Y0156924D01*
X0025443Y0157064D01*
X0025511Y0157202D01*
X0025582Y0157338D01*
X0025656Y0157472D01*
X0025734Y0157605D01*
X0025816Y0157735D01*
X0025900Y0157863D01*
X0025988Y0157989D01*
X0026080Y0158113D01*
X0026174Y0158234D01*
X0026272Y0158353D01*
X0026372Y0158469D01*
X0026476Y0158582D01*
X0026583Y0158693D01*
X0026692Y0158801D01*
X0026804Y0158906D01*
X0026919Y0159008D01*
X0027036Y0159107D01*
X0027156Y0159203D01*
X0027279Y0159296D01*
X0027403Y0159386D01*
X0027531Y0159472D01*
X0027660Y0159556D01*
X0027791Y0159635D01*
X0027925Y0159711D01*
X0028060Y0159784D01*
X0028197Y0159853D01*
X0028336Y0159919D01*
X0028477Y0159981D01*
X0028619Y0160039D01*
X0028763Y0160094D01*
X0028908Y0160145D01*
X0029054Y0160192D01*
X0029201Y0160235D01*
X0029350Y0160275D01*
X0029499Y0160310D01*
X0029650Y0160342D01*
X0029801Y0160370D01*
X0029953Y0160394D01*
X0030105Y0160414D01*
X0030258Y0160430D01*
X0030411Y0160442D01*
X0030565Y0160450D01*
X0030718Y0160454D01*
X0030872Y0160454D01*
X0031025Y0160450D01*
X0031179Y0160442D01*
X0031332Y0160430D01*
X0031485Y0160414D01*
X0031637Y0160394D01*
X0031789Y0160370D01*
X0031940Y0160342D01*
X0032091Y0160310D01*
X0032240Y0160275D01*
X0032389Y0160235D01*
X0032536Y0160192D01*
X0032682Y0160145D01*
X0032827Y0160094D01*
X0032971Y0160039D01*
X0033113Y0159981D01*
X0033254Y0159919D01*
X0033393Y0159853D01*
X0033530Y0159784D01*
X0033665Y0159711D01*
X0033799Y0159635D01*
X0033930Y0159556D01*
X0034059Y0159472D01*
X0034187Y0159386D01*
X0034311Y0159296D01*
X0034434Y0159203D01*
X0034554Y0159107D01*
X0034671Y0159008D01*
X0034786Y0158906D01*
X0034898Y0158801D01*
X0035007Y0158693D01*
X0035114Y0158582D01*
X0035218Y0158469D01*
X0035318Y0158353D01*
X0035416Y0158234D01*
X0035510Y0158113D01*
X0035602Y0157989D01*
X0035690Y0157863D01*
X0035774Y0157735D01*
X0035856Y0157605D01*
X0035934Y0157472D01*
X0036008Y0157338D01*
X0036079Y0157202D01*
X0036147Y0157064D01*
X0036211Y0156924D01*
X0036271Y0156782D01*
X0036327Y0156639D01*
X0036380Y0156495D01*
X0036429Y0156349D01*
X0036474Y0156203D01*
X0036516Y0156055D01*
X0036553Y0155906D01*
X0036587Y0155756D01*
X0036617Y0155605D01*
X0036642Y0155453D01*
X0036664Y0155301D01*
X0036682Y0155149D01*
X0036696Y0154996D01*
X0036706Y0154842D01*
X0036712Y0154689D01*
X0036714Y0154535D01*
X0036712Y0154381D01*
X0036706Y0154228D01*
X0036696Y0154074D01*
X0036682Y0153921D01*
X0036664Y0153769D01*
X0036642Y0153617D01*
X0036617Y0153465D01*
X0036587Y0153314D01*
X0036553Y0153164D01*
X0036516Y0153015D01*
X0036474Y0152867D01*
X0036429Y0152721D01*
X0036380Y0152575D01*
X0036327Y0152431D01*
X0036271Y0152288D01*
X0036211Y0152146D01*
X0036147Y0152006D01*
X0036079Y0151868D01*
X0036008Y0151732D01*
X0035934Y0151598D01*
X0035856Y0151465D01*
X0035774Y0151335D01*
X0035690Y0151207D01*
X0035602Y0151081D01*
X0035510Y0150957D01*
X0035416Y0150836D01*
X0035318Y0150717D01*
X0035218Y0150601D01*
X0035114Y0150488D01*
X0035007Y0150377D01*
X0034898Y0150269D01*
X0034786Y0150164D01*
X0034671Y0150062D01*
X0034554Y0149963D01*
X0034434Y0149867D01*
X0034311Y0149774D01*
X0034187Y0149684D01*
X0034059Y0149598D01*
X0033930Y0149514D01*
X0033799Y0149435D01*
X0033665Y0149359D01*
X0033530Y0149286D01*
X0033393Y0149217D01*
X0033254Y0149151D01*
X0033113Y0149089D01*
X0032971Y0149031D01*
X0032827Y0148976D01*
X0032682Y0148925D01*
X0032536Y0148878D01*
X0032389Y0148835D01*
X0032240Y0148795D01*
X0032091Y0148760D01*
X0031940Y0148728D01*
X0031789Y0148700D01*
X0031637Y0148676D01*
X0031485Y0148656D01*
X0031332Y0148640D01*
X0031179Y0148628D01*
X0031025Y0148620D01*
X0030872Y0148616D01*
X0030718Y0148616D01*
X0030565Y0148620D01*
X0030411Y0148628D01*
X0030258Y0148640D01*
X0030105Y0148656D01*
X0029953Y0148676D01*
X0029801Y0148700D01*
X0029650Y0148728D01*
X0029499Y0148760D01*
X0029350Y0148795D01*
X0029201Y0148835D01*
X0029054Y0148878D01*
X0028908Y0148925D01*
X0028763Y0148976D01*
X0028619Y0149031D01*
X0028477Y0149089D01*
X0028336Y0149151D01*
X0028197Y0149217D01*
X0028060Y0149286D01*
X0027925Y0149359D01*
X0027791Y0149435D01*
X0027660Y0149514D01*
X0027531Y0149598D01*
X0027403Y0149684D01*
X0027279Y0149774D01*
X0027156Y0149867D01*
X0027036Y0149963D01*
X0026919Y0150062D01*
X0026804Y0150164D01*
X0026692Y0150269D01*
X0026583Y0150377D01*
X0026476Y0150488D01*
X0026372Y0150601D01*
X0026272Y0150717D01*
X0026174Y0150836D01*
X0026080Y0150957D01*
X0025988Y0151081D01*
X0025900Y0151207D01*
X0025816Y0151335D01*
X0025734Y0151465D01*
X0025656Y0151598D01*
X0025582Y0151732D01*
X0025511Y0151868D01*
X0025443Y0152006D01*
X0025379Y0152146D01*
X0025319Y0152288D01*
X0025263Y0152431D01*
X0025210Y0152575D01*
X0025161Y0152721D01*
X0025116Y0152867D01*
X0025074Y0153015D01*
X0025037Y0153164D01*
X0025003Y0153314D01*
X0024973Y0153465D01*
X0024948Y0153617D01*
X0024926Y0153769D01*
X0024908Y0153921D01*
X0024894Y0154074D01*
X0024884Y0154228D01*
X0024878Y0154381D01*
X0024876Y0154535D01*
X0068630Y0159890D02*
X0068630Y0166189D01*
X0080835Y0166189D01*
X0080835Y0159890D01*
X0068630Y0159890D01*
X0083315Y0175008D02*
X0083315Y0181307D01*
X0095520Y0181307D01*
X0095520Y0175008D01*
X0083315Y0175008D01*
X0098748Y0190402D02*
X0098748Y0196701D01*
X0110953Y0196701D01*
X0110953Y0190402D01*
X0098748Y0190402D01*
X0111504Y0181543D02*
X0111504Y0175244D01*
X0123709Y0175244D01*
X0123709Y0181543D01*
X0111504Y0181543D01*
X0124929Y0191268D02*
X0124929Y0227488D01*
X0183591Y0227488D01*
X0183591Y0191268D01*
X0124929Y0191268D01*
X0113315Y0208945D02*
X0113315Y0228945D01*
X0103315Y0228945D01*
X0103315Y0208945D01*
X0113315Y0208945D01*
X0124024Y0170008D02*
X0124024Y0163709D01*
X0136228Y0163709D01*
X0136228Y0170008D01*
X0124024Y0170008D01*
X0145520Y0171898D02*
X0145520Y0178197D01*
X0157724Y0178197D01*
X0157724Y0171898D01*
X0145520Y0171898D01*
X0163394Y0179614D02*
X0163394Y0185913D01*
X0175598Y0185913D01*
X0175598Y0179614D01*
X0163394Y0179614D01*
X0176622Y0173197D02*
X0176622Y0166898D01*
X0188827Y0166898D01*
X0188827Y0173197D01*
X0176622Y0173197D01*
X0195756Y0220067D02*
X0195756Y0075067D01*
X0205756Y0075067D01*
X0205756Y0220067D01*
X0195756Y0220067D01*
D15*
X0197862Y0222767D02*
X0197862Y0227371D01*
X0195560Y0225069D01*
X0198629Y0225069D01*
X0194025Y0227371D02*
X0192491Y0227371D01*
X0193258Y0227371D02*
X0193258Y0223534D01*
X0192491Y0222767D01*
X0191723Y0222767D01*
X0190956Y0223534D01*
X0189493Y0222023D02*
X0188726Y0222790D01*
X0184889Y0222790D01*
X0184889Y0222023D02*
X0184889Y0223557D01*
X0185656Y0225092D02*
X0184889Y0225859D01*
X0184889Y0227394D01*
X0185656Y0228161D01*
X0186424Y0228161D01*
X0187191Y0227394D01*
X0187958Y0228161D01*
X0188726Y0228161D01*
X0189493Y0227394D01*
X0189493Y0225859D01*
X0188726Y0225092D01*
X0187191Y0226627D02*
X0187191Y0227394D01*
X0189493Y0222023D02*
X0189493Y0221256D01*
X0188726Y0220488D01*
X0187883Y0215009D02*
X0187883Y0211939D01*
X0186349Y0210405D01*
X0184814Y0211939D01*
X0184814Y0215009D01*
X0189418Y0212707D02*
X0189418Y0211172D01*
X0190185Y0210405D01*
X0192487Y0210405D01*
X0194022Y0211172D02*
X0194789Y0210405D01*
X0197091Y0210405D01*
X0197091Y0213474D02*
X0194789Y0213474D01*
X0194022Y0212707D01*
X0194022Y0211172D01*
X0192487Y0213474D02*
X0190185Y0213474D01*
X0189418Y0212707D01*
X0167131Y0189146D02*
X0167131Y0186844D01*
X0166363Y0186076D01*
X0164829Y0186076D01*
X0164061Y0186844D01*
X0164061Y0189146D01*
X0163393Y0188829D02*
X0162626Y0189596D01*
X0160324Y0189596D01*
X0160324Y0188062D01*
X0161091Y0187294D01*
X0162626Y0187294D01*
X0163393Y0188062D01*
X0163393Y0188829D01*
X0161858Y0191131D02*
X0160324Y0189596D01*
X0158789Y0189596D02*
X0158022Y0188829D01*
X0155720Y0188829D01*
X0157254Y0188829D02*
X0158789Y0187294D01*
X0158789Y0189596D02*
X0158789Y0191131D01*
X0158022Y0191898D01*
X0155720Y0191898D01*
X0155720Y0187294D01*
X0161858Y0191131D02*
X0163393Y0191898D01*
X0164061Y0184542D02*
X0164061Y0182240D01*
X0164829Y0181472D01*
X0166363Y0181472D01*
X0167131Y0182240D01*
X0167131Y0184542D01*
X0165596Y0179938D02*
X0162527Y0179938D01*
X0165596Y0179938D02*
X0167131Y0178403D01*
X0165596Y0176869D01*
X0162527Y0176869D01*
X0168948Y0176113D02*
X0171250Y0176113D01*
X0172017Y0176880D01*
X0172017Y0178415D01*
X0171250Y0179182D01*
X0168948Y0179182D01*
X0168948Y0174578D01*
X0170483Y0176113D02*
X0172017Y0174578D01*
X0173552Y0175345D02*
X0174319Y0174578D01*
X0175854Y0174578D01*
X0176621Y0175345D01*
X0176621Y0176880D01*
X0175854Y0177647D01*
X0175087Y0177647D01*
X0173552Y0176880D01*
X0173552Y0179182D01*
X0176621Y0179182D01*
X0145519Y0179578D02*
X0142450Y0179578D01*
X0143984Y0179578D02*
X0143984Y0184182D01*
X0142450Y0182647D01*
X0140915Y0181880D02*
X0140148Y0181113D01*
X0137846Y0181113D01*
X0139380Y0181113D02*
X0140915Y0179578D01*
X0140915Y0181880D02*
X0140915Y0183415D01*
X0140148Y0184182D01*
X0137846Y0184182D01*
X0137846Y0179578D01*
X0124023Y0175226D02*
X0124023Y0174458D01*
X0120954Y0171389D01*
X0124023Y0171389D01*
X0124023Y0175226D02*
X0123255Y0175993D01*
X0121721Y0175993D01*
X0120954Y0175226D01*
X0119419Y0175226D02*
X0119419Y0173691D01*
X0118652Y0172924D01*
X0116350Y0172924D01*
X0117884Y0172924D02*
X0119419Y0171389D01*
X0116350Y0171389D02*
X0116350Y0175993D01*
X0118652Y0175993D01*
X0119419Y0175226D01*
X0111503Y0183692D02*
X0110736Y0182924D01*
X0109201Y0182924D01*
X0108434Y0183692D01*
X0106899Y0182924D02*
X0105365Y0184459D01*
X0106132Y0184459D02*
X0103830Y0184459D01*
X0103830Y0182924D02*
X0103830Y0187528D01*
X0106132Y0187528D01*
X0106899Y0186761D01*
X0106899Y0185226D01*
X0106132Y0184459D01*
X0108434Y0186761D02*
X0109201Y0187528D01*
X0110736Y0187528D01*
X0111503Y0186761D01*
X0111503Y0185994D01*
X0110736Y0185226D01*
X0111503Y0184459D01*
X0111503Y0183692D01*
X0110736Y0185226D02*
X0109968Y0185226D01*
X0113511Y0193502D02*
X0115813Y0196571D01*
X0118115Y0193502D01*
X0118115Y0198106D02*
X0113511Y0198106D01*
X0115046Y0198106D02*
X0115046Y0200407D01*
X0115813Y0201175D01*
X0117348Y0201175D01*
X0118115Y0200407D01*
X0118115Y0198106D01*
X0117348Y0202709D02*
X0116580Y0203477D01*
X0116580Y0205779D01*
X0115813Y0205779D02*
X0118115Y0205779D01*
X0118115Y0203477D01*
X0117348Y0202709D01*
X0115046Y0203477D02*
X0115046Y0205011D01*
X0115813Y0205779D01*
X0115046Y0207313D02*
X0115046Y0208848D01*
X0114278Y0208081D02*
X0117348Y0208081D01*
X0118115Y0208848D01*
X0117348Y0211150D02*
X0118115Y0211917D01*
X0117348Y0211150D02*
X0114278Y0211150D01*
X0115046Y0210383D02*
X0115046Y0211917D01*
X0115813Y0213452D02*
X0115046Y0214219D01*
X0115046Y0215754D01*
X0115813Y0216521D01*
X0116580Y0216521D01*
X0116580Y0213452D01*
X0115813Y0213452D02*
X0117348Y0213452D01*
X0118115Y0214219D01*
X0118115Y0215754D01*
X0118115Y0218056D02*
X0115046Y0218056D01*
X0116580Y0218056D02*
X0115046Y0219590D01*
X0115046Y0220358D01*
X0115046Y0221892D02*
X0117348Y0221892D01*
X0118115Y0222660D01*
X0118115Y0224962D01*
X0118882Y0224962D02*
X0115046Y0224962D01*
X0113511Y0226496D02*
X0113511Y0229566D01*
X0113511Y0228031D02*
X0118115Y0228031D01*
X0117348Y0231100D02*
X0115813Y0231100D01*
X0115046Y0231868D01*
X0115046Y0233402D01*
X0115813Y0234170D01*
X0116580Y0234170D01*
X0116580Y0231100D01*
X0117348Y0231100D02*
X0118115Y0231868D01*
X0118115Y0233402D01*
X0118115Y0235704D02*
X0115046Y0235704D01*
X0116580Y0235704D02*
X0115046Y0237239D01*
X0115046Y0238006D01*
X0115046Y0239541D02*
X0115046Y0240308D01*
X0115813Y0241075D01*
X0115046Y0241843D01*
X0115813Y0242610D01*
X0118115Y0242610D01*
X0118115Y0241075D02*
X0115813Y0241075D01*
X0115046Y0239541D02*
X0118115Y0239541D01*
X0118882Y0224962D02*
X0119650Y0224194D01*
X0119650Y0223427D01*
X0097980Y0202686D02*
X0097980Y0198082D01*
X0098747Y0200384D02*
X0095678Y0200384D01*
X0097980Y0202686D01*
X0094143Y0201918D02*
X0094143Y0200384D01*
X0093376Y0199617D01*
X0091074Y0199617D01*
X0092609Y0199617D02*
X0094143Y0198082D01*
X0091074Y0198082D02*
X0091074Y0202686D01*
X0093376Y0202686D01*
X0094143Y0201918D01*
X0094386Y0173631D02*
X0096688Y0173631D01*
X0097455Y0172863D01*
X0097455Y0171329D01*
X0096688Y0170561D01*
X0094386Y0170561D01*
X0094386Y0169027D02*
X0094386Y0173631D01*
X0095920Y0170561D02*
X0097455Y0169027D01*
X0098990Y0169794D02*
X0098990Y0170561D01*
X0099757Y0171329D01*
X0101292Y0171329D01*
X0102059Y0170561D01*
X0102059Y0169794D01*
X0101292Y0169027D01*
X0099757Y0169027D01*
X0098990Y0169794D01*
X0099757Y0171329D02*
X0098990Y0172096D01*
X0098990Y0172863D01*
X0099757Y0173631D01*
X0101292Y0173631D01*
X0102059Y0172863D01*
X0102059Y0172096D01*
X0101292Y0171329D01*
X0087374Y0158513D02*
X0087374Y0157745D01*
X0084305Y0154676D01*
X0084305Y0153909D01*
X0082770Y0153909D02*
X0081235Y0155443D01*
X0082003Y0155443D02*
X0079701Y0155443D01*
X0079701Y0153909D02*
X0079701Y0158513D01*
X0082003Y0158513D01*
X0082770Y0157745D01*
X0082770Y0156211D01*
X0082003Y0155443D01*
X0084305Y0158513D02*
X0087374Y0158513D01*
X0122137Y0124261D02*
X0125206Y0121959D01*
X0122137Y0119657D01*
X0126741Y0121191D02*
X0128276Y0119657D01*
X0129810Y0121191D01*
X0129810Y0124261D01*
X0131345Y0121959D02*
X0134414Y0121959D01*
X0132879Y0123493D02*
X0132879Y0120424D01*
X0126741Y0121191D02*
X0126741Y0124261D01*
X0147133Y0097016D02*
X0151737Y0097016D01*
X0151737Y0098550D02*
X0151737Y0095481D01*
X0148668Y0095481D02*
X0147133Y0097016D01*
X0147133Y0093946D02*
X0147133Y0090877D01*
X0151737Y0090877D01*
X0149435Y0090877D02*
X0149435Y0092412D01*
X0139372Y0088888D02*
X0139372Y0086586D01*
X0139372Y0088888D02*
X0138604Y0089655D01*
X0136302Y0089655D01*
X0136302Y0086586D01*
X0134768Y0086586D02*
X0133233Y0086586D01*
X0134000Y0086586D02*
X0134000Y0089655D01*
X0133233Y0089655D01*
X0134000Y0091190D02*
X0134000Y0091957D01*
X0131698Y0085819D02*
X0128629Y0085819D01*
X0127094Y0086586D02*
X0125560Y0086586D01*
X0126327Y0086586D02*
X0126327Y0091190D01*
X0125560Y0091190D02*
X0127094Y0091190D01*
X0124025Y0088888D02*
X0120956Y0086586D01*
X0124025Y0088888D02*
X0120956Y0091190D01*
X0126621Y0078162D02*
X0131225Y0078162D01*
X0131225Y0076628D02*
X0131225Y0079697D01*
X0128156Y0076628D02*
X0126621Y0078162D01*
X0126621Y0075093D02*
X0131225Y0072024D01*
X0131225Y0075093D02*
X0126621Y0072024D01*
X0103272Y0072811D02*
X0098669Y0075880D01*
X0099436Y0077415D02*
X0098669Y0078182D01*
X0098669Y0079717D01*
X0099436Y0080484D01*
X0100203Y0080484D01*
X0103272Y0077415D01*
X0103272Y0080484D01*
X0103272Y0075880D02*
X0098669Y0072811D01*
X0024887Y0125208D02*
X0024887Y0128277D01*
X0024887Y0126743D02*
X0020283Y0126743D01*
X0021817Y0125208D01*
X0017603Y0112288D02*
X0017603Y0109219D01*
X0017603Y0110754D02*
X0012999Y0110754D01*
X0014534Y0109219D01*
X0014534Y0107684D02*
X0013767Y0107684D01*
X0012999Y0106917D01*
X0012999Y0104615D01*
X0017603Y0104615D01*
X0017603Y0106917D01*
X0016836Y0107684D01*
X0016069Y0107684D01*
X0015301Y0106917D01*
X0015301Y0104615D01*
X0015301Y0103080D02*
X0016069Y0102313D01*
X0016069Y0100011D01*
X0017603Y0100011D02*
X0012999Y0100011D01*
X0012999Y0102313D01*
X0013767Y0103080D01*
X0015301Y0103080D01*
X0015301Y0106917D02*
X0014534Y0107684D01*
X0016069Y0149617D02*
X0016069Y0151919D01*
X0015301Y0152687D01*
X0013767Y0152687D01*
X0012999Y0151919D01*
X0012999Y0149617D01*
X0017603Y0149617D01*
X0017603Y0154221D02*
X0012999Y0154221D01*
X0012999Y0156523D01*
X0013767Y0157291D01*
X0014534Y0157291D01*
X0015301Y0156523D01*
X0015301Y0154221D01*
X0017603Y0154221D02*
X0017603Y0156523D01*
X0016836Y0157291D01*
X0016069Y0157291D01*
X0015301Y0156523D01*
X0013767Y0158825D02*
X0012999Y0159592D01*
X0012999Y0161127D01*
X0013767Y0161894D01*
X0014534Y0161894D01*
X0017603Y0158825D01*
X0017603Y0161894D01*
X0021817Y0174027D02*
X0020283Y0175561D01*
X0024887Y0175561D01*
X0024887Y0174027D02*
X0024887Y0177096D01*
X0040759Y0203948D02*
X0043828Y0203948D01*
X0042294Y0203948D02*
X0042294Y0208552D01*
X0040759Y0207017D01*
X0046983Y0204392D02*
X0046985Y0204459D01*
X0046991Y0204526D01*
X0047000Y0204592D01*
X0047014Y0204657D01*
X0047031Y0204722D01*
X0047052Y0204785D01*
X0047077Y0204847D01*
X0047105Y0204908D01*
X0047137Y0204967D01*
X0047172Y0205024D01*
X0047211Y0205079D01*
X0047252Y0205131D01*
X0047297Y0205181D01*
X0047344Y0205228D01*
X0047394Y0205273D01*
X0047446Y0205314D01*
X0047501Y0205353D01*
X0047558Y0205388D01*
X0047617Y0205420D01*
X0047678Y0205448D01*
X0047740Y0205473D01*
X0047803Y0205494D01*
X0047868Y0205511D01*
X0047933Y0205525D01*
X0047999Y0205534D01*
X0048066Y0205540D01*
X0048133Y0205542D01*
X0048200Y0205540D01*
X0048267Y0205534D01*
X0048333Y0205525D01*
X0048398Y0205511D01*
X0048463Y0205494D01*
X0048526Y0205473D01*
X0048588Y0205448D01*
X0048649Y0205420D01*
X0048708Y0205388D01*
X0048765Y0205353D01*
X0048820Y0205314D01*
X0048872Y0205273D01*
X0048922Y0205228D01*
X0048969Y0205181D01*
X0049014Y0205131D01*
X0049055Y0205079D01*
X0049094Y0205024D01*
X0049129Y0204967D01*
X0049161Y0204908D01*
X0049189Y0204847D01*
X0049214Y0204785D01*
X0049235Y0204722D01*
X0049252Y0204657D01*
X0049266Y0204592D01*
X0049275Y0204526D01*
X0049281Y0204459D01*
X0049283Y0204392D01*
X0049281Y0204325D01*
X0049275Y0204258D01*
X0049266Y0204192D01*
X0049252Y0204127D01*
X0049235Y0204062D01*
X0049214Y0203999D01*
X0049189Y0203937D01*
X0049161Y0203876D01*
X0049129Y0203817D01*
X0049094Y0203760D01*
X0049055Y0203705D01*
X0049014Y0203653D01*
X0048969Y0203603D01*
X0048922Y0203556D01*
X0048872Y0203511D01*
X0048820Y0203470D01*
X0048765Y0203431D01*
X0048708Y0203396D01*
X0048649Y0203364D01*
X0048588Y0203336D01*
X0048526Y0203311D01*
X0048463Y0203290D01*
X0048398Y0203273D01*
X0048333Y0203259D01*
X0048267Y0203250D01*
X0048200Y0203244D01*
X0048133Y0203242D01*
X0048066Y0203244D01*
X0047999Y0203250D01*
X0047933Y0203259D01*
X0047868Y0203273D01*
X0047803Y0203290D01*
X0047740Y0203311D01*
X0047678Y0203336D01*
X0047617Y0203364D01*
X0047558Y0203396D01*
X0047501Y0203431D01*
X0047446Y0203470D01*
X0047394Y0203511D01*
X0047344Y0203556D01*
X0047297Y0203603D01*
X0047252Y0203653D01*
X0047211Y0203705D01*
X0047172Y0203760D01*
X0047137Y0203817D01*
X0047105Y0203876D01*
X0047077Y0203937D01*
X0047052Y0203999D01*
X0047031Y0204062D01*
X0047014Y0204127D01*
X0047000Y0204192D01*
X0046991Y0204258D01*
X0046985Y0204325D01*
X0046983Y0204392D01*
X0161346Y0226161D02*
X0161346Y0228463D01*
X0162113Y0229231D01*
X0165182Y0229231D01*
X0165950Y0228463D01*
X0165950Y0226161D01*
X0161346Y0226161D01*
X0162880Y0231533D02*
X0162880Y0233067D01*
X0163648Y0233835D01*
X0165950Y0233835D01*
X0165950Y0231533D01*
X0165182Y0230765D01*
X0164415Y0231533D01*
X0164415Y0233835D01*
X0162880Y0235369D02*
X0162880Y0236904D01*
X0162113Y0236137D02*
X0165182Y0236137D01*
X0165950Y0236904D01*
X0165182Y0238439D02*
X0164415Y0239206D01*
X0164415Y0241508D01*
X0163648Y0241508D02*
X0165950Y0241508D01*
X0165950Y0239206D01*
X0165182Y0238439D01*
X0162880Y0239206D02*
X0162880Y0240741D01*
X0163648Y0241508D01*
D16*
X0018871Y0079660D02*
X0017870Y0079660D01*
X0018370Y0079660D02*
X0018370Y0081162D01*
X0017870Y0080661D01*
X0017397Y0081162D02*
X0016897Y0081162D01*
X0017147Y0081162D02*
X0017147Y0079910D01*
X0016897Y0079660D01*
X0016647Y0079660D01*
X0016396Y0079910D01*
D17*
X0017409Y0071858D02*
X0013472Y0071858D01*
X0029220Y0071830D02*
X0029220Y0071858D01*
X0029220Y0071830D02*
X0033086Y0071830D01*
X0033157Y0071858D02*
X0033157Y0067921D01*
X0033157Y0044299D02*
X0033157Y0040362D01*
X0029220Y0040362D01*
X0017409Y0040362D02*
X0013472Y0040362D01*
D18*
X0139102Y0038433D02*
X0139102Y0006189D01*
X0197370Y0006189D01*
X0197370Y0038433D01*
X0197370Y0054181D02*
X0197370Y0064063D01*
X0139102Y0064063D01*
X0139102Y0054181D01*
D19*
X0136636Y0017542D02*
X0136636Y0015340D01*
X0134434Y0017542D01*
X0133884Y0017542D01*
X0133333Y0016992D01*
X0133333Y0015891D01*
X0133884Y0015340D01*
X0133333Y0013859D02*
X0133333Y0012758D01*
X0133333Y0013308D02*
X0136086Y0013308D01*
X0136636Y0012758D01*
X0136636Y0012208D01*
X0136086Y0011657D01*
D20*
X0058283Y0194292D02*
X0057683Y0194292D01*
X0058283Y0194292D02*
X0058283Y0194892D01*
X0058283Y0207092D02*
X0058283Y0207692D01*
X0057683Y0207692D01*
X0047083Y0207692D02*
X0044883Y0207692D01*
X0044883Y0207092D01*
X0044883Y0194892D02*
X0044883Y0194292D01*
X0045483Y0194292D01*
M02*
